<svg width="474" height="431" viewBox="0 0 474 431" fill="none" xmlns="http://www.w3.org/2000/svg">
<path d="M297.937 120.362C297.287 118.411 296.312 116.46 295.337 114.509C294.686 113.208 293.711 111.582 292.736 110.281C291.76 108.655 290.46 107.029 288.834 105.078C283.958 99.2248 277.456 94.0217 270.629 89.7943C265.427 86.5424 262.176 83.6157 260.225 81.9897V81.3393L258.6 79.3882L258.275 79.063C258.275 79.063 258.275 79.063 258.275 79.3882L256.974 81.0141C256.649 81.3393 256.324 81.6645 255.674 81.9897C255.023 82.3149 254.048 82.9653 253.073 83.6157C252.098 83.9408 250.797 84.5912 249.497 84.9164H249.172C243.645 86.8676 238.768 89.7943 235.842 94.0217C233.241 97.924 232.916 102.477 233.567 107.68C230.966 105.729 228.365 103.777 225.439 102.151C223.163 100.851 221.213 99.55 218.937 98.5744C217.636 97.924 216.336 97.2736 214.71 96.9485C206.583 94.0217 197.805 92.3958 190.002 92.3958C185.451 92.3958 181.55 91.7454 178.624 91.095C177.648 90.7698 176.998 90.7698 176.023 90.4446L172.447 89.4691C172.122 89.4691 172.122 89.4691 172.122 89.1439C172.122 89.1439 172.122 89.4691 172.447 89.4691L173.097 91.4202L173.422 92.3958C173.747 93.3714 173.747 94.6721 174.072 96.2981C174.072 97.5988 174.072 98.8996 174.072 100.526C174.072 101.176 174.072 102.151 173.747 103.127C172.772 109.631 173.422 116.785 176.673 123.939C179.274 130.443 184.151 135.971 189.677 141.174C182.2 140.524 175.048 140.849 168.545 143.125C161.068 146.052 154.891 150.93 150.34 157.109C149.039 158.735 147.739 160.361 146.438 161.661C144.813 162.962 143.512 164.263 142.212 165.238C141.887 165.564 141.237 165.889 140.911 165.889L137.66 167.515H137.335C137.335 167.515 137.66 167.84 137.986 167.84L141.562 170.116C142.212 170.441 142.862 171.092 143.512 171.417C144.488 172.393 145.788 173.368 147.088 174.344C147.414 174.669 147.739 174.994 147.739 174.994C148.064 175.319 148.389 175.644 148.714 175.97C149.039 176.295 149.689 176.945 150.014 177.27C150.99 178.571 152.29 179.872 153.591 181.173C154.241 181.823 154.891 182.799 155.866 183.449C162.043 190.278 169.196 196.457 177.323 201.009C185.126 205.562 192.928 207.513 201.056 208.814C196.505 213.692 193.253 219.22 192.603 226.699C191.628 235.154 193.579 244.585 197.155 253.365C198.78 257.267 199.756 260.844 200.406 263.446C200.731 265.397 201.056 267.023 201.056 268.324V272.226C201.056 272.551 201.056 272.551 201.056 272.551C201.056 272.551 201.381 272.551 201.706 272.551L205.607 271.901C206.258 271.901 207.233 271.901 208.208 271.901C211.459 271.901 216.011 272.551 221.863 273.527C223.813 273.852 225.764 274.177 227.715 274.502C235.517 275.803 243.645 275.803 250.472 274.177C257.949 272.551 263.151 268.974 267.703 264.421C269.653 271.576 272.904 278.73 278.431 285.234C284.608 292.713 293.061 299.217 301.514 303.769C303.789 305.07 305.74 306.371 307.691 307.672C308.666 308.322 309.641 308.972 310.291 309.623C311.917 310.924 313.217 311.899 314.193 312.875L317.119 315.801L317.444 316.127V315.801L318.744 312.875C318.744 312.55 319.069 312.224 319.394 311.899C320.045 310.598 321.02 309.298 322.32 307.672C323.621 306.371 324.921 304.745 326.872 303.444C332.399 298.566 336.95 292.713 339.226 285.559C341.176 279.38 340.851 273.202 339.226 266.698C345.078 271.25 351.255 274.828 358.082 276.453C365.559 278.405 372.712 278.079 379.214 276.453C379.864 276.128 380.514 276.128 381.164 276.128C382.465 275.803 384.09 275.803 385.066 275.478C387.016 275.478 388.317 275.478 389.617 275.478L392.543 276.128H392.868C392.868 276.128 392.868 275.803 392.543 275.803L392.218 274.828L391.243 272.876C390.918 271.901 390.267 270.6 389.942 268.974C389.292 266.698 388.642 264.096 388.317 260.844C387.341 253.69 385.391 246.211 381.49 239.057C380.839 237.756 379.864 236.455 379.214 235.154C377.588 232.553 375.313 229.951 373.362 227.675C372.061 226.049 370.761 224.748 369.136 223.447C374.337 223.447 379.214 222.472 382.79 219.87C387.016 216.618 389.617 212.066 390.918 206.863C390.918 206.538 390.918 206.212 391.243 206.212C391.568 204.912 392.218 203.611 392.543 202.635C393.193 201.335 393.844 200.359 394.494 199.709L395.794 198.408C395.794 198.408 395.794 198.408 396.119 198.408C396.119 198.408 395.794 198.408 395.794 198.083L394.494 197.107L393.193 196.131C392.543 195.806 391.893 195.156 391.243 194.506C389.292 192.88 387.016 190.603 384.415 187.677C379.539 182.148 374.012 176.945 368.16 173.043C366.86 174.019 365.559 175.319 364.584 176.295C370.111 180.197 375.638 185.075 380.189 190.278C382.465 192.88 384.741 195.156 386.366 196.457C386.691 196.782 387.016 197.107 387.341 197.432C386.366 198.733 385.716 200.359 384.741 202.96C384.741 203.286 384.741 203.286 384.415 203.611C383.115 208.814 380.514 213.367 376.288 216.293C372.712 218.895 368.16 219.87 363.284 219.87C361.983 219.87 360.683 219.87 359.382 219.87C360.683 220.846 361.983 222.147 362.958 223.122C367.51 227.675 371.411 232.228 374.662 238.081C378.238 244.91 380.189 252.389 381.164 259.544C381.49 262.145 381.815 264.421 382.465 266.373C382.79 267.673 383.115 268.649 383.44 269.624C381.489 269.624 379.214 269.624 376.288 270.275C375.638 270.275 375.312 270.6 374.662 270.6C368.485 272.226 361.333 272.226 354.181 270.6C348.004 268.974 342.152 265.722 336.625 261.495C335.325 260.519 333.699 259.218 332.399 258.243C332.724 259.869 333.049 261.495 333.374 263.121C334.674 269.299 334.674 275.153 333.049 281.006C330.773 287.835 326.547 293.689 321.02 298.566C319.719 299.867 318.419 300.843 317.444 302.143C316.143 303.444 315.168 304.745 314.193 306.046C313.868 305.721 313.542 305.721 313.217 305.395C312.892 305.07 312.242 304.745 311.592 304.42C310.617 303.769 309.641 303.119 308.666 302.469C307.04 301.493 305.415 300.192 303.464 299.217C295.337 294.664 287.209 288.485 281.032 281.006C275.83 274.827 272.904 268.324 270.629 261.495C269.978 259.869 269.653 258.243 269.328 256.292C268.353 257.592 267.378 258.568 266.077 259.544C261.851 263.771 256.649 267.023 249.822 268.324C246.246 268.974 242.344 269.299 238.443 269.299C232.916 269.299 227.39 268.649 221.863 267.348C217.636 266.373 214.06 266.047 211.134 265.722C210.484 265.722 209.834 265.722 209.184 265.722H208.859C208.859 264.747 208.533 263.771 208.208 262.795C207.558 260.194 206.583 257.267 205.282 253.69C203.982 250.763 203.007 247.512 202.356 244.585C201.056 239.707 200.406 234.504 200.731 229.951C200.731 229.301 200.731 228.325 200.731 227.675C201.381 220.846 204.307 215.643 208.208 211.09C209.184 209.789 210.159 208.814 211.459 207.838C209.509 207.513 207.558 207.513 205.933 207.188C205.282 207.188 204.632 206.863 203.982 206.863C198.13 205.887 192.603 204.261 186.751 201.335C185.776 201.009 184.801 200.359 183.825 199.709C178.624 196.782 173.747 193.205 169.521 188.977C166.595 186.051 163.669 183.124 161.068 180.197C160.093 179.222 159.117 177.921 158.142 176.945C157.167 175.644 156.191 174.669 155.216 173.693C153.916 172.393 152.615 171.417 151.64 170.441C151.64 170.441 151.64 170.441 151.965 170.116C153.265 169.141 154.566 167.84 155.866 166.539C156.842 165.564 157.817 164.263 158.792 162.962C163.344 157.109 169.196 152.231 176.348 149.304C182.525 147.028 189.027 146.703 196.179 147.028C197.805 147.028 199.756 147.353 201.381 147.678C200.081 146.377 198.455 145.077 197.155 143.776C191.953 138.898 187.727 133.695 185.126 127.516C182.2 120.362 181.55 113.533 182.2 107.029C182.2 106.379 182.2 105.729 182.525 105.078C182.85 102.477 182.525 100.2 182.2 98.5744C182.85 98.5744 183.175 98.8996 183.825 98.8996C186.426 99.2248 189.677 99.55 193.579 99.8752C201.381 100.2 209.834 101.501 217.961 104.428C224.789 107.029 230.641 110.606 235.842 114.509C237.143 115.484 238.443 116.785 239.744 117.761C239.418 116.46 239.418 115.159 239.093 113.858C238.443 108.98 239.093 104.753 241.369 101.176C244.295 96.9484 248.846 94.0217 254.373 92.0706C254.373 92.0706 254.373 92.0706 254.698 92.0706C256.649 91.4202 257.949 90.7698 259.25 90.1195C259.9 89.7943 260.55 89.4691 261.201 88.8187C263.151 90.4446 266.077 92.721 269.978 95.3225C276.48 99.55 282.983 104.753 287.859 110.606C292.086 115.484 294.686 120.037 296.312 124.915C296.637 126.216 296.962 127.191 297.612 128.492C297.937 128.492 297.937 128.167 298.262 128.167C298.913 127.516 299.563 127.191 300.213 126.541C302.814 124.59 305.74 123.289 309.641 122.964C313.217 121.338 316.794 119.712 320.045 118.086C317.444 117.435 314.518 117.11 312.242 117.435C305.09 116.135 301.188 117.761 297.937 120.362Z" fill="#A82021"/>
<path d="M473.494 348.971L471.218 345.069L468.292 339.215C466.017 333.362 464.066 326.533 462.766 318.403C460.49 304.42 455.938 291.087 449.761 279.706C448.136 276.779 446.51 274.177 444.56 271.576C446.51 269.95 448.786 268.649 450.737 267.999L453.663 267.348L455.613 267.023L455.288 266.698L454.313 265.722L450.737 261.82C448.786 259.219 446.51 255.967 444.56 252.39C446.51 251.414 448.136 250.438 449.761 249.138C455.938 243.935 460.49 235.805 462.766 225.399C464.066 218.895 466.017 215.643 467.317 213.692L469.268 211.741L471.869 209.79L471.544 209.464V209.139L469.268 207.839L464.716 204.587C460.165 201.01 455.288 196.132 450.087 190.278C440.658 179.547 430.255 170.442 420.502 163.938C417.576 161.987 414.975 160.361 412.049 159.06C411.724 156.133 411.724 153.532 412.049 151.581L412.699 148.979L413.025 148.004L408.148 146.378C405.872 145.402 403.596 144.101 400.996 142.475C394.819 148.329 388.317 153.857 382.14 159.385C384.415 159.71 386.691 160.361 388.642 160.686C394.494 161.987 400.02 163.938 405.222 166.539C406.197 174.019 405.547 180.523 403.596 185.4C401.646 190.278 398.395 193.855 393.193 196.782L394.494 197.758C394.494 197.758 394.819 197.758 394.819 198.083C394.819 198.083 394.819 198.083 394.494 198.083L393.193 199.384C392.543 200.034 391.893 201.01 391.242 202.31C391.893 202.636 392.868 203.286 393.518 203.611C401.971 208.489 408.798 213.692 414.975 219.871C421.152 226.374 427.004 234.504 432.206 243.609C428.63 244.91 424.403 245.561 419.202 245.561C417.251 245.561 414.975 245.561 412.699 245.235L406.197 244.91L411.074 249.138C413.35 251.089 415.3 253.04 417.576 254.991C422.778 260.194 427.329 265.072 431.23 270.275C426.029 274.503 419.852 277.429 413.35 278.08C406.848 279.055 399.695 278.08 390.917 275.153L391.242 276.129C391.242 276.129 391.242 276.454 391.568 276.454H391.242L388.317 275.803C387.016 275.803 385.391 275.803 383.765 275.803C384.415 277.104 385.391 278.08 386.041 279.38C391.893 288.811 395.144 297.266 396.444 305.396C397.745 314.176 397.419 323.281 395.469 332.386C389.617 329.785 383.765 326.208 377.263 321.33C374.987 319.704 372.386 317.753 369.786 315.477L364.584 310.924L366.534 317.753C367.51 320.68 368.16 323.606 368.81 326.208C370.436 333.362 371.086 339.866 370.761 345.719C360.032 343.118 349.954 338.89 341.176 333.362C333.049 328.159 325.571 321.33 318.744 312.225C318.419 312.55 318.419 312.875 318.094 313.2L316.793 316.127V316.452L316.468 316.127L313.542 313.2C312.567 312.225 311.267 311.249 309.641 309.948V310.273C307.365 320.029 303.139 327.183 297.287 332.712C290.46 338.89 281.357 343.443 269.978 346.37C265.752 339.541 262.501 332.061 259.9 323.281C258.925 320.354 258.274 317.102 257.299 313.851L256.324 309.623L253.398 312.875C251.447 315.151 249.822 317.102 247.871 319.054C242.669 324.582 236.817 328.484 230.965 331.411C221.863 320.68 215.035 309.623 211.134 298.892C208.858 293.038 207.558 287.185 207.233 281.332C206.908 278.08 207.233 274.828 207.558 271.251C206.583 271.251 205.607 271.251 204.957 271.251L201.056 271.901C200.731 271.901 200.731 271.901 200.406 271.901V271.576V267.674C200.406 266.373 200.08 264.747 199.755 262.796C189.027 265.397 178.949 265.722 168.22 263.446C156.191 261.17 142.537 255.967 129.207 248.487C131.808 242.309 135.384 236.781 140.586 230.927C142.537 228.976 144.487 227.025 146.763 224.748L150.339 221.497L145.463 221.171C141.887 220.846 137.985 220.521 134.734 219.871C124.981 218.245 116.203 216.294 108.076 213.042C109.701 201.985 113.277 192.88 119.129 185.726C124.331 178.897 132.133 174.344 142.862 170.767C143.187 170.767 143.512 170.442 143.837 170.442C143.187 169.791 142.537 169.466 141.887 169.141L138.31 166.865C137.985 166.865 137.985 166.539 137.66 166.539C137.66 166.539 137.985 166.539 137.985 166.214L141.236 164.588C141.562 164.263 141.887 163.938 142.537 163.938C142.212 163.938 141.887 163.613 141.561 163.613C129.533 157.434 120.105 150.605 112.627 142.801C104.825 134.346 98.3225 124.59 93.771 113.859C100.598 113.208 108.076 113.208 116.853 114.184C120.105 114.509 123.356 114.834 126.932 115.485L134.409 116.785L128.557 111.907C125.631 109.631 123.356 107.355 120.755 105.078C114.578 99.225 109.701 93.6968 105.8 88.1686C115.553 85.2418 125.956 83.9411 136.035 84.5915C145.788 85.2418 155.866 87.8434 167.57 92.7212C169.846 93.6968 172.121 94.6724 174.722 95.9731C174.722 94.3472 174.397 93.0464 174.072 92.0708L173.747 91.0953C173.422 90.4449 172.772 89.4693 172.447 88.8189C167.245 79.7136 164.969 72.2342 164.969 65.4052C164.969 58.5762 167.245 51.7472 171.471 45.8938C177.973 49.4709 184.15 53.6984 190.978 58.5762C193.253 60.5274 195.854 62.4785 198.455 64.4297L203.332 68.6571L202.031 62.4785C201.381 60.2022 201.056 57.9259 201.056 55.9747C200.406 50.7717 200.406 46.5442 201.381 42.9671C211.784 47.1946 221.537 52.3976 229.665 57.9259C237.468 63.4541 244.295 69.9579 250.472 78.0877C251.772 79.7136 252.748 81.3396 254.048 82.9655C255.023 82.3151 255.999 81.9899 256.649 81.3396C256.974 80.6892 257.299 79.7136 257.624 79.0632C259.9 72.8846 263.476 68.9823 268.678 66.706C273.879 64.4297 281.032 63.1289 289.484 63.4541C292.736 68.3319 295.661 73.535 297.612 79.3884C298.262 81.3396 299.238 83.2907 299.888 85.567L300.863 88.8189L303.464 86.5426C304.764 85.567 306.065 84.5915 307.365 83.6159C310.941 81.0144 314.843 79.7136 319.069 78.738C325.571 86.2174 330.773 93.6968 334.024 100.526C335.324 102.802 335.975 105.404 336.95 107.68C338.9 106.704 340.851 105.729 343.127 104.428C342.477 102.477 341.501 100.201 340.526 98.2495C337.6 91.7456 332.724 84.9167 326.872 77.7625C335.649 78.0877 346.703 80.6892 358.732 85.2418C362.958 86.8678 366.86 88.1686 370.111 89.1441L381.164 80.0388H379.214L375.637 79.7136C371.411 79.0632 365.559 77.1121 358.732 74.5106C346.378 69.6327 334.674 66.706 325.246 66.3808C322.645 66.3808 320.044 66.3808 317.444 67.0312C314.518 63.7793 312.567 60.8526 310.616 58.2511L307.04 55.9747L306.39 54.9992V54.674L305.74 54.9992L302.814 55.9747C300.863 56.2999 298.262 56.6251 295.011 56.6251C293.061 53.6984 291.11 51.0969 288.509 48.4953C280.382 39.39 269.328 29.6343 256.649 21.1794C249.171 16.3015 243.32 11.4237 238.768 7.52138L234.867 3.61909L232.916 1.34276L232.591 0.692383L231.291 3.2939L229.34 5.57024C227.389 7.19619 223.813 9.14733 216.986 11.0985C205.932 14.0252 197.48 19.5534 192.278 26.3824C190.978 28.0084 190.002 29.9595 189.352 31.9106C184.475 29.9595 180.249 28.0084 176.998 26.0572L172.447 22.8053L170.821 21.8297L170.496 21.5046V22.8053V23.1305L170.171 26.3824C169.521 28.3336 168.545 30.6099 167.245 32.8862C163.669 31.2603 160.418 29.6343 156.841 28.0084C142.862 22.8053 126.932 19.2282 110.676 17.9275C101.248 17.2771 92.7957 15.9763 85.6434 13.7L79.1413 11.4237L73.9396 9.14733V9.47252L72.9642 9.14733L75.24 13.7C75.24 13.7 75.24 14.0252 75.5651 14.0252L77.1906 18.5778C78.491 23.7809 78.491 29.6343 77.1906 36.1381C74.9149 48.8205 76.5404 62.1533 82.0672 74.1854C83.3676 77.1121 84.668 79.7136 86.6187 82.6403C82.0672 83.9411 77.8408 84.5915 73.6145 84.9166H67.7626H65.1617L66.4621 86.2174C66.7872 86.2174 66.7872 86.5426 66.7872 86.8678L70.3634 91.4205C72.6391 94.6724 74.9149 98.5746 76.8655 102.802C73.2894 103.452 70.0383 104.103 66.7872 105.078C52.8077 109.631 40.1286 118.086 29.7252 129.793C23.8733 136.622 17.6963 141.5 11.5193 144.752L5.34231 147.678C5.01721 147.678 4.6921 148.004 4.6921 148.004L0.140625 150.28L0.790836 150.605L0.46573 150.93L4.367 152.881C4.6921 152.881 5.01721 153.207 5.01721 153.207L11.8444 157.759C18.9967 162.962 26.4742 170.116 34.2767 178.897C47.9311 194.506 63.5362 207.839 80.1166 216.619C84.3429 218.895 88.5693 220.846 92.7957 222.797C91.8204 227.675 90.5199 232.228 88.8944 235.805L86.2936 240.358C86.2936 240.683 85.9685 240.683 85.9685 241.008L85.3183 241.984H85.6434V242.309L86.6187 242.634C86.9438 242.634 87.2689 242.634 87.2689 242.634L93.771 244.26C98.6476 245.886 104.174 248.162 110.026 251.414C108.726 254.991 107.751 258.568 107.425 262.471C105.475 277.429 108.401 295.315 115.553 314.176C119.779 324.907 122.055 334.012 122.705 341.817V348.971C122.705 349.296 122.705 349.622 122.705 349.622L122.38 352.548H122.705V352.873L125.631 352.223C125.956 352.223 126.282 352.223 126.607 351.898L134.084 350.597C142.537 349.947 152.94 350.597 164.969 352.873C185.776 356.776 204.632 356.776 220.237 352.873C224.138 351.898 227.714 350.597 231.291 348.971C235.517 353.849 238.768 358.727 241.044 362.954L243.645 368.483L244.295 370.108V370.434L244.945 369.783L245.27 369.458L249.497 366.206C252.748 364.255 256.974 362.304 261.85 361.003C264.126 364.905 266.727 368.483 269.978 371.734C281.032 384.742 295.661 396.124 312.892 405.554C322.32 410.757 330.123 415.96 335.649 421.163L340.526 426.366C340.851 426.692 340.851 426.692 341.176 427.017L343.452 429.943V429.618L343.777 430.269L344.752 426.366C344.752 426.041 344.752 426.041 344.752 425.716L346.703 420.188C349.304 414.334 353.855 408.481 359.707 402.628C370.111 392.221 377.263 380.189 380.514 367.507C381.164 364.58 381.814 361.654 382.14 358.727C386.691 359.702 390.592 361.003 394.168 362.629L398.72 365.231L400.671 366.531V366.206H400.996L400.671 364.58L400.02 359.052C400.02 355.8 400.345 352.223 400.996 348.321C403.922 349.622 406.848 350.272 410.099 351.247C422.127 354.174 434.807 353.524 446.835 349.947C453.012 347.996 458.539 347.345 463.416 347.67L467.967 348.321H468.292L472.844 349.622L472.519 348.971H473.494ZM395.469 152.881C396.444 150.93 397.094 149.304 397.745 147.353C400.02 148.654 401.971 149.955 403.922 150.93C403.922 152.231 403.922 153.857 403.922 155.483C401.321 154.833 398.395 153.857 395.469 152.881ZM304.439 64.1045C305.74 66.0556 307.365 68.0068 308.991 69.9579C307.04 70.6083 305.415 71.5839 303.464 72.5594C302.164 69.6327 300.863 67.0312 299.563 64.1045C301.513 64.4297 303.139 64.1045 304.439 64.1045ZM203.332 35.8129C207.558 29.6343 215.035 24.7565 225.114 21.8297C229.34 20.529 232.916 19.2282 235.842 17.6023C239.743 21.1794 244.62 24.7565 250.472 28.3336C263.151 36.7885 273.879 46.219 282.007 55.3243C282.332 55.6495 282.332 55.9747 282.657 55.9747C274.855 55.9747 268.353 56.9503 263.151 59.2266C257.624 61.503 254.048 65.7304 251.447 71.5839C244.945 63.1289 238.443 56.6251 230.315 51.0969C222.513 45.5686 213.085 40.6908 203.006 36.4633C203.006 36.4633 203.006 36.1381 203.332 35.8129ZM178.624 34.5122C181.224 35.8129 184.475 37.1137 187.726 38.7396C187.401 41.016 187.401 43.2923 187.401 45.8938C183.825 43.2923 180.249 40.6908 176.673 38.4145C177.323 37.1137 177.973 35.8129 178.624 34.5122ZM93.1208 41.016C93.771 36.4633 94.0961 32.2358 93.771 28.0084C99.6229 28.9839 105.8 29.9595 112.627 30.2847C128.557 31.2603 144.162 34.8374 157.492 40.0404C158.467 40.3656 159.767 41.016 160.743 41.3412C156.516 47.1946 154.241 54.0236 154.241 60.8526C154.241 67.6816 156.191 75.1609 161.068 84.2663C149.364 79.3884 139.286 76.7869 129.858 76.1365C119.779 75.4861 109.376 76.7869 99.6229 79.3884C98.9727 78.4128 98.6476 77.4373 97.9974 76.1365C92.7957 65.0801 91.1702 52.7228 93.1208 41.016ZM92.7957 92.7212C95.3965 95.9731 98.6476 99.5502 101.899 102.802C97.022 102.477 92.4706 102.152 87.9191 102.477C86.6187 99.5502 85.3183 96.9487 83.6927 94.6724C86.6187 94.3472 89.5446 93.3716 92.7957 92.7212ZM91.4953 207.188C75.8902 198.408 60.6102 185.726 47.606 170.767C42.0792 164.263 36.5524 158.735 31.0256 154.182C35.5771 150.93 39.8035 146.703 44.0299 141.825C53.4579 130.443 65.4868 122.314 78.491 118.086C79.7915 117.761 81.0919 117.436 82.3923 117.11C86.9438 127.842 93.4459 137.923 101.574 146.052C109.376 154.182 118.479 161.011 130.833 167.19C119.779 170.767 111.977 175.645 106.45 182.474C100.923 189.303 97.0221 198.733 95.0714 209.139C93.771 208.164 92.7957 207.839 91.4953 207.188ZM114.578 241.984C110.676 240.032 106.775 238.081 103.199 236.455C104.174 233.854 104.825 230.602 105.475 227.35C110.676 228.976 116.528 230.277 122.38 231.252C119.129 234.829 116.853 238.406 114.578 241.984ZM217.636 337.264C203.006 340.841 184.801 340.516 164.644 336.939C155.541 335.313 147.088 334.338 139.936 334.012C138.636 327.509 136.36 320.029 133.434 311.899C126.282 294.014 123.356 277.104 124.981 262.796C124.981 261.82 125.306 260.845 125.306 259.869C138.636 267.023 151.64 271.901 163.669 274.177C174.072 276.129 184.15 276.129 194.554 273.527C195.529 273.202 196.504 273.202 197.805 272.877C197.48 275.153 197.155 277.429 197.155 279.706C196.504 288.486 197.805 296.616 201.056 305.07C204.957 315.477 211.459 326.208 220.237 336.939C219.262 336.614 218.611 336.939 217.636 337.264ZM247.546 353.849C245.595 350.922 242.994 347.67 240.394 344.093C243.97 341.817 247.221 338.89 250.472 335.964C252.097 341.167 254.048 346.044 256.324 350.597C253.073 351.573 250.147 352.548 247.546 353.849ZM368.81 358.402C365.884 370.108 358.732 381.49 348.654 390.921C344.102 395.148 340.526 399.701 337.6 403.928C332.398 400.026 326.546 396.124 319.394 392.221C303.139 383.116 288.834 372.06 278.431 359.702C277.781 358.727 276.805 357.751 276.155 356.776C286.884 353.524 295.987 348.971 302.489 342.793C308.666 336.939 312.892 329.785 315.168 319.704C322.97 330.11 330.773 337.264 339.551 343.118C348.329 348.646 358.407 352.873 369.135 355.15C369.135 356.776 368.81 357.426 368.81 358.402ZM391.242 351.247C388.642 350.272 385.716 349.296 382.79 348.646C382.465 345.069 382.14 341.167 381.489 337.264C385.065 339.866 388.642 342.142 392.218 344.093C391.893 346.695 391.568 348.971 391.242 351.247ZM421.477 217.594C415.625 211.09 408.798 205.887 400.02 201.01C405.872 198.083 409.448 193.855 411.399 188.652C413.025 183.774 413.675 177.921 413.025 171.092C413.35 171.092 413.35 171.417 413.675 171.417C423.103 177.596 433.181 186.701 442.609 197.107C446.51 201.66 450.412 205.562 453.988 208.814C452.687 211.416 451.387 214.668 450.737 218.57C448.786 228 444.56 235.155 439.033 239.707C438.708 240.032 438.383 240.358 437.733 240.683C433.506 232.228 427.654 224.098 421.477 217.594ZM431.23 255.967C433.831 255.642 436.107 255.316 438.383 254.991C439.683 257.267 441.309 259.544 442.609 261.82C441.309 262.471 440.008 263.446 438.708 264.422C436.432 261.17 433.831 258.568 431.23 255.967ZM441.959 336.289C430.905 339.541 418.876 339.866 407.498 337.264C406.522 336.939 405.222 336.614 404.247 336.289C406.197 327.183 406.522 318.078 404.897 309.298C403.596 301.168 400.345 292.713 394.819 283.608C404.247 286.86 411.724 287.835 418.551 286.86C425.053 285.884 431.23 283.283 436.432 279.055C436.757 279.706 437.407 280.681 437.733 281.332C443.91 292.388 448.136 305.396 450.412 318.728C451.387 324.257 452.362 329.46 453.988 334.012C450.412 334.338 446.185 334.988 441.959 336.289Z" fill="black"/>
</svg>
