<svg width="117" height="243" viewBox="0 0 117 243" fill="none" xmlns="http://www.w3.org/2000/svg">
<path fill-rule="evenodd" clip-rule="evenodd" d="M116.535 229.787C109.603 229.787 106.301 224.171 102.67 220.207C98.7083 216.242 95.7372 211.617 92.4359 206.992C91.7757 207.322 91.1154 207.322 90.7853 207.653C87.1539 215.251 80.8814 220.867 75.5994 226.814C73.2885 229.457 69.9872 231.439 67.0161 233.421C56.452 240.028 45.2277 244.653 32.6828 241.35C23.1091 238.707 14.5258 234.743 8.58349 224.832C1.32068 213.93 -0.660081 203.688 0.000173904 191.465C0.330302 187.17 5.94247 161.732 11.8848 152.482C16.1764 143.562 21.1283 134.973 26.0803 126.383C30.702 118.124 35.9841 110.195 40.936 102.267C42.5866 99.6237 42.9168 96.9808 42.5866 93.6772C41.5963 84.0966 40.936 74.8464 40.6059 65.2659C40.2757 55.355 41.5963 45.1137 44.5674 35.8635C47.2084 26.9437 51.17 18.0238 57.4424 11.4166C64.0449 4.14855 72.6283 -1.46763 83.8526 1.50564C90.4551 3.15746 94.4167 7.45219 96.3974 13.3987C100.029 23.64 99.6987 34.2117 97.718 44.7833C94.7468 60.6408 88.4744 75.1768 78.9007 88.3913C73.2885 96.3201 67.3462 104.579 61.734 112.508C60.7437 113.829 60.4135 116.142 60.7437 117.794C62.7244 124.731 65.0353 131.999 67.6763 138.607C72.6283 151.16 88.1443 183.867 90.7853 188.492C98.0481 175.607 102.01 161.732 105.641 147.526C107.622 150.5 107.952 150.5 107.292 152.482C104.651 164.045 95.4071 198.072 98.0481 201.706C100.359 204.679 102.67 211.287 104.981 214.59C107.292 217.564 109.933 220.537 112.574 223.18C115.215 224.832 116.535 226.814 116.535 229.787ZM51.17 126.053C50.1796 127.374 49.5193 128.365 48.8591 129.687C42.2565 140.589 35.3238 151.16 28.7213 162.062C25.7501 167.018 15.5162 195.429 15.186 205.34C14.8559 215.912 21.1283 223.51 28.7213 228.466C36.9745 233.751 47.2084 233.751 56.1219 228.466C66.686 222.519 75.2693 213.93 82.5321 204.019C86.4936 198.733 86.1635 197.742 82.8622 191.795C78.9007 184.858 74.2789 178.25 71.3077 170.982C65.0353 157.107 59.4231 143.232 53.811 129.356C52.8206 128.365 52.1603 127.705 51.17 126.053ZM53.4809 82.4448C61.4039 72.8642 65.6956 62.9533 70.9776 53.3728C74.609 46.4351 76.9199 39.1671 77.9103 31.2384C78.9007 25.6222 78.9007 20.3364 78.2404 14.7202C73.6186 13.7291 70.9776 15.7113 68.3366 18.3542C63.0546 23.9704 60.0834 30.908 57.4424 37.8457C53.1507 49.4084 52.8206 61.9622 52.8206 74.1857C52.8206 76.8286 53.1507 78.8108 53.4809 82.4448Z" fill="#A82021"/>
</svg>
