<svg width="462" height="387" viewBox="0 0 462 387" fill="none" xmlns="http://www.w3.org/2000/svg">
<path d="M215.551 206.622C208.827 210.423 201.81 213.932 195.086 217.441C195.671 220.073 196.548 222.997 197.717 225.629C198.887 228.846 199.764 231.77 200.348 233.817C200.641 233.817 200.641 233.817 200.933 233.525L202.103 233.232L201.81 234.402C201.81 234.987 201.518 235.864 201.518 236.449C202.103 236.449 202.687 236.449 203.272 236.449C209.411 233.232 215.551 230.016 221.69 226.507C296.823 184.105 381.312 120.357 461.415 24.4414C461.415 24.4414 355.878 130.591 215.551 206.622Z" fill="#2B3760"/>
<path d="M203.272 184.105C202.395 184.983 201.226 186.152 200.349 187.03C196.84 191.124 194.209 195.802 193.625 201.943C193.625 202.528 193.625 203.405 193.625 203.99C199.764 201.066 205.903 198.142 212.335 195.217C275.482 164.22 345.061 119.187 414.055 53.9766C414.055 53.9766 325.473 124.743 207.073 178.257C203.564 179.719 200.056 181.474 196.548 182.936C197.133 182.936 197.717 183.228 198.302 183.228C200.056 183.52 201.81 183.813 203.272 184.105Z" fill="#2C457B"/>
<path d="M181.054 177.964C188.655 175.332 196.256 172.115 204.149 169.191C253.848 149.014 307.64 120.356 362.602 79.709C362.602 79.709 293.607 122.11 200.056 155.739C188.947 159.833 177.253 163.635 165.559 167.144C169.36 170.653 173.745 173.87 178.422 176.794C179.299 177.086 180.176 177.671 181.054 177.964Z" fill="#35579C"/>
<path d="M60.2237 290.962C71.9177 287.453 84.4886 283.067 97.9366 278.095C95.3055 270.492 93.5514 262.889 92.382 255.871C77.1799 261.135 61.9778 265.814 46.4834 269.615L60.2237 290.962Z" fill="#2B3760"/>
<path d="M35.9588 252.654C52.915 249.145 71.6252 244.174 91.7972 238.033C91.7972 236.863 92.0896 235.986 92.0896 234.816C92.3819 232.769 92.6743 230.722 93.259 228.676C89.1661 226.629 85.3656 225.166 82.1498 223.997L76.5951 222.535H76.3028L74.2564 222.242C57.5925 226.629 40.6363 230.43 23.3878 233.062L35.9588 252.654Z" fill="#2C457B"/>
<path d="M11.6939 214.346C30.9889 212.591 52.915 209.375 76.5952 204.404C76.8875 203.526 77.1799 202.649 77.1799 201.772C74.5487 200.602 71.9176 199.14 69.5788 197.97C65.4859 195.631 61.3931 192.999 57.3002 190.367C38.2976 193.291 19.295 195.338 0 196.216L11.6939 214.346Z" fill="#35579C"/>
<path d="M277.206 107.612C276.621 105.858 275.744 104.103 274.867 102.349C274.283 101.179 273.406 99.717 272.528 98.5473C271.651 97.0852 270.482 95.6231 269.02 93.8685C264.635 88.6049 258.788 83.9261 252.649 80.1246C247.971 77.2004 245.048 74.5685 243.294 73.1064V72.5216L241.832 70.767L241.54 70.4746C241.54 70.4746 241.54 70.4746 241.54 70.767L240.37 72.2292C240.078 72.5216 239.785 72.814 239.201 73.1064C238.616 73.3989 237.739 73.9837 236.862 74.5685C235.985 74.861 234.816 75.4458 233.646 75.7382H233.354C228.384 77.4928 223.999 80.1246 221.368 83.9261C219.029 87.4352 218.736 91.5292 219.321 96.2079C216.982 94.4534 214.644 92.6989 212.012 91.2367C209.966 90.067 208.212 88.8973 206.165 88.0201C204.996 87.4352 203.827 86.8504 202.365 86.5579C195.056 83.9261 187.163 82.464 180.147 82.464C176.054 82.464 172.545 81.8792 169.914 81.2943C169.037 81.0019 168.453 81.0019 167.576 80.7095L164.36 79.8322C164.067 79.8322 164.067 79.8322 164.067 79.5398C164.067 79.5398 164.067 79.8322 164.36 79.8322L164.944 81.5867L165.237 82.464C165.529 83.3413 165.529 84.511 165.821 85.9731C165.821 87.1428 165.821 88.3125 165.821 89.7746C165.821 90.3595 165.821 91.2367 165.529 92.114C164.652 97.9625 165.237 104.396 168.16 110.829C170.499 116.678 174.884 121.649 179.854 126.328C173.13 125.743 166.698 126.035 160.852 128.082C154.128 130.714 148.573 135.1 144.48 140.656C143.311 142.119 142.141 143.581 140.972 144.75C139.51 145.92 138.341 147.09 137.171 147.967C136.879 148.259 136.294 148.552 136.002 148.552L133.078 150.014H132.786C132.786 150.014 133.078 150.306 133.371 150.306L136.587 152.353C137.171 152.646 137.756 153.231 138.341 153.523C139.218 154.4 140.387 155.278 141.557 156.155C141.849 156.447 142.141 156.74 142.141 156.74C142.434 157.032 142.726 157.325 143.018 157.617C143.311 157.909 143.895 158.494 144.188 158.787C145.065 159.956 146.234 161.126 147.404 162.296C147.988 162.881 148.573 163.758 149.45 164.343C155.005 170.484 161.436 176.04 168.745 180.134C175.761 184.228 182.778 185.982 190.086 187.152C185.993 191.538 183.07 196.509 182.485 203.235C181.608 210.838 183.362 219.319 186.578 227.214C188.04 230.723 188.917 233.94 189.502 236.279C189.794 238.034 190.086 239.496 190.086 240.666V244.175C190.086 244.467 190.086 244.467 190.086 244.467C190.086 244.467 190.379 244.467 190.671 244.467L194.179 243.882C194.764 243.882 195.641 243.882 196.518 243.882C199.441 243.882 203.534 244.467 208.797 245.344C210.551 245.637 212.305 245.929 214.059 246.222C221.075 247.391 228.384 247.391 234.523 245.929C241.247 244.467 245.925 241.25 250.018 237.156C251.772 243.59 254.695 250.023 259.665 255.872C265.22 262.597 272.821 268.446 280.422 272.54C282.468 273.709 284.222 274.879 285.976 276.049C286.854 276.634 287.731 277.219 288.315 277.803C289.777 278.973 290.946 279.85 291.823 280.728L294.455 283.359L294.747 283.652V283.359L295.916 280.728C295.916 280.435 296.209 280.143 296.501 279.85C297.086 278.681 297.963 277.511 299.132 276.049C300.301 274.879 301.471 273.417 303.225 272.247C308.195 267.861 312.288 262.597 314.334 256.164C316.088 250.608 315.796 245.052 314.334 239.203C319.596 243.297 325.151 246.514 331.29 247.976C338.014 249.731 344.446 249.438 350.293 247.976C350.878 247.684 351.462 247.684 352.047 247.684C353.216 247.391 354.678 247.391 355.555 247.099C357.309 247.099 358.479 247.099 359.648 247.099L362.279 247.684H362.572C362.572 247.684 362.572 247.391 362.279 247.391L361.987 246.514L361.11 244.759C360.818 243.882 360.233 242.712 359.94 241.25C359.356 239.203 358.771 236.864 358.479 233.94C357.602 227.506 355.848 220.781 352.339 214.347C351.755 213.178 350.878 212.008 350.293 210.838C348.831 208.499 346.785 206.159 345.031 204.113C343.861 202.65 342.692 201.481 341.23 200.311C345.908 200.311 350.293 199.434 353.509 197.094C357.309 194.17 359.648 190.076 360.818 185.397C360.818 185.105 360.818 184.812 361.11 184.812C361.402 183.643 361.987 182.473 362.279 181.596C362.864 180.426 363.449 179.549 364.033 178.964L365.203 177.794C365.203 177.794 365.203 177.794 365.495 177.794C365.495 177.794 365.203 177.794 365.203 177.502L364.033 176.625L362.864 175.747C362.279 175.455 361.695 174.87 361.11 174.285C359.356 172.823 357.309 170.776 354.971 168.144C350.585 163.173 345.615 158.494 340.353 154.985C339.184 155.862 338.014 157.032 337.137 157.909C342.107 161.419 347.077 165.805 351.17 170.484C353.216 172.823 355.263 174.87 356.725 176.04C357.017 176.332 357.309 176.625 357.602 176.917C356.725 178.087 356.14 179.549 355.263 181.888C355.263 182.181 355.263 182.181 354.971 182.473C353.801 187.152 351.462 191.246 347.662 193.878C344.446 196.217 340.353 197.094 335.968 197.094C334.799 197.094 333.629 197.094 332.46 197.094C333.629 197.972 334.799 199.141 335.676 200.019C339.768 204.113 343.277 208.206 346.2 213.47C349.416 219.611 351.17 226.337 352.047 232.77C352.339 235.109 352.632 237.156 353.216 238.911C353.509 240.081 353.801 240.958 354.094 241.835C352.339 241.835 350.293 241.835 347.662 242.42C347.077 242.42 346.785 242.712 346.2 242.712C340.646 244.175 334.214 244.175 327.782 242.712C322.228 241.25 316.965 238.326 311.995 234.525C310.826 233.647 309.364 232.478 308.195 231.6C308.487 233.062 308.78 234.525 309.072 235.987C310.241 241.543 310.241 246.806 308.78 252.07C306.733 258.211 302.933 263.475 297.963 267.861C296.793 269.031 295.624 269.908 294.747 271.078C293.577 272.247 292.7 273.417 291.823 274.587C291.531 274.294 291.239 274.294 290.946 274.002C290.654 273.709 290.069 273.417 289.485 273.125C288.608 272.54 287.731 271.955 286.854 271.37C285.392 270.493 283.93 269.323 282.176 268.446C274.867 264.352 267.559 258.796 262.004 252.07C257.326 246.514 254.695 240.666 252.649 234.525C252.064 233.062 251.772 231.6 251.479 229.846C250.602 231.016 249.725 231.893 248.556 232.77C244.755 236.572 240.078 239.496 233.939 240.666C230.723 241.25 227.215 241.543 223.706 241.543C218.736 241.543 213.767 240.958 208.797 239.788C204.996 238.911 201.78 238.619 199.149 238.326C198.564 238.326 197.98 238.326 197.395 238.326H197.103C197.103 237.449 196.81 236.572 196.518 235.694C195.933 233.355 195.056 230.723 193.887 227.506C192.717 224.875 191.84 221.95 191.256 219.319C190.086 214.932 189.502 210.253 189.794 206.159C189.794 205.575 189.794 204.697 189.794 204.113C190.379 197.972 193.01 193.293 196.518 189.199C197.395 188.029 198.272 187.152 199.441 186.275C197.687 185.982 195.933 185.982 194.472 185.69C193.887 185.69 193.302 185.397 192.717 185.397C187.455 184.52 182.485 183.058 177.223 180.426C176.346 180.134 175.469 179.549 174.592 178.964C169.914 176.332 165.529 173.116 161.729 169.314C159.097 166.682 156.466 164.05 154.128 161.419C153.25 160.541 152.373 159.372 151.496 158.494C150.619 157.325 149.742 156.447 148.865 155.57C147.696 154.4 146.526 153.523 145.649 152.646C145.649 152.646 145.649 152.646 145.942 152.353C147.111 151.476 148.281 150.306 149.45 149.137C150.327 148.259 151.204 147.09 152.081 145.92C156.174 140.656 161.436 136.27 167.868 133.638C173.422 131.591 179.269 131.299 185.701 131.591C187.163 131.591 188.917 131.884 190.379 132.176C189.209 131.006 187.748 129.837 186.578 128.667C181.901 124.281 178.1 119.602 175.761 114.046C173.13 107.612 172.545 101.472 173.13 95.6231C173.13 95.0382 173.13 94.4534 173.422 93.8685C173.715 91.5292 173.422 89.4822 173.13 88.0201C173.715 88.0201 174.007 88.3125 174.592 88.3125C176.931 88.6049 179.854 88.8973 183.362 89.1898C190.379 89.4822 197.98 90.6519 205.288 93.2837C211.428 95.6231 216.69 98.8398 221.368 102.349C222.537 103.226 223.706 104.396 224.876 105.273C224.583 104.103 224.583 102.934 224.291 101.764C223.706 97.3776 224.291 93.5761 226.337 90.3595C228.969 86.5579 233.061 83.9261 238.031 82.1716C238.031 82.1716 238.031 82.1716 238.324 82.1716C240.078 81.5867 241.247 81.0019 242.417 80.417C243.001 80.1246 243.586 79.8322 244.171 79.2473C245.925 80.7095 248.556 82.7564 252.064 85.0958C257.911 88.8973 263.758 93.5761 268.143 98.8398C271.944 103.226 274.283 107.32 275.744 111.706C276.037 112.876 276.329 113.753 276.914 114.923C277.206 114.923 277.206 114.631 277.498 114.631C278.083 114.046 278.668 113.753 279.252 113.169C281.591 111.414 284.222 110.244 287.731 109.952C290.946 108.49 294.162 107.028 297.086 105.566C294.747 104.981 292.116 104.688 290.069 104.981C283.638 103.811 280.13 105.273 277.206 107.612Z" fill="#A82021"/>
<path d="M435.074 313.186L433.027 309.677L430.396 304.414C428.35 299.15 426.596 293.009 425.426 285.698C423.38 273.124 419.287 261.135 413.733 250.9C412.271 248.268 410.809 245.929 409.055 243.589C410.809 242.127 412.855 240.958 414.61 240.373L417.241 239.788L418.995 239.495L418.702 239.203L417.825 238.326L414.61 234.817C412.855 232.477 410.809 229.553 409.055 226.336C410.809 225.459 412.271 224.582 413.733 223.412C419.287 218.733 423.38 211.423 425.426 202.065C426.596 196.217 428.35 193.292 429.519 191.538L431.273 189.783L433.612 188.029L433.32 187.736V187.444L431.273 186.274L427.181 183.35C423.088 180.133 418.702 175.747 414.025 170.483C405.547 160.833 396.192 152.645 387.421 146.797C384.79 145.042 382.451 143.58 379.82 142.411C379.528 139.779 379.528 137.439 379.82 135.685L380.405 133.345L380.697 132.468L376.312 131.006C374.266 130.129 372.219 128.959 369.88 127.497C364.326 132.761 358.479 137.732 352.924 142.703C354.971 142.995 357.017 143.58 358.771 143.873C364.033 145.042 369.003 146.797 373.681 149.136C374.558 155.862 373.973 161.711 372.219 166.097C370.465 170.483 367.542 173.7 362.864 176.332L364.033 177.209C364.033 177.209 364.326 177.209 364.326 177.502C364.326 177.502 364.326 177.502 364.033 177.502L362.864 178.671C362.279 179.256 361.695 180.133 361.11 181.303C361.695 181.595 362.572 182.18 363.156 182.473C370.757 186.859 376.897 191.538 382.451 197.094C388.006 202.942 393.268 210.253 397.946 218.441C394.73 219.611 390.929 220.195 386.252 220.195C384.498 220.195 382.451 220.195 380.405 219.903L374.558 219.611L378.943 223.412C380.99 225.167 382.744 226.921 384.79 228.676C389.468 233.355 393.561 237.741 397.069 242.42C392.391 246.221 386.837 248.853 380.99 249.438C375.143 250.315 368.711 249.438 360.818 246.806L361.11 247.683C361.11 247.683 361.11 247.976 361.402 247.976H361.11L358.479 247.391C357.309 247.391 355.848 247.391 354.386 247.391C354.971 248.561 355.848 249.438 356.432 250.608C361.695 259.088 364.618 266.691 365.787 274.002C366.957 281.897 366.665 290.085 364.91 298.273C359.648 295.933 354.386 292.717 348.539 288.33C346.492 286.868 344.154 285.114 341.815 283.067L337.137 278.973L338.891 285.114C339.768 287.745 340.353 290.377 340.938 292.717C342.4 299.15 342.984 304.998 342.692 310.262C333.044 307.923 323.982 304.121 316.088 299.15C308.78 294.471 302.056 288.33 295.916 280.142C295.624 280.435 295.624 280.727 295.332 281.02L294.162 283.652V283.944L293.87 283.652L291.239 281.02C290.362 280.142 289.192 279.265 287.731 278.095V278.388C285.684 287.161 281.884 293.594 276.621 298.565C270.482 304.121 262.296 308.215 252.064 310.847C248.264 304.706 245.34 297.98 243.001 290.085C242.124 287.453 241.54 284.529 240.663 281.605L239.786 277.803L237.154 280.727C235.4 282.774 233.939 284.529 232.184 286.283C227.507 291.255 222.245 294.764 216.982 297.395C208.797 287.745 202.657 277.803 199.149 268.153C197.103 262.889 195.933 257.626 195.641 252.362C195.349 249.438 195.641 246.514 195.933 243.297C195.056 243.297 194.179 243.297 193.595 243.297L190.086 243.882C189.794 243.882 189.794 243.882 189.502 243.882V243.589V240.08C189.502 238.911 189.209 237.448 188.917 235.694C179.269 238.033 170.207 238.326 160.559 236.279C149.742 234.232 137.464 229.553 125.477 222.827C127.816 217.271 131.032 212.3 135.71 207.036C137.464 205.282 139.218 203.527 141.264 201.48L144.48 198.556L140.095 198.264C136.879 197.971 133.371 197.679 130.447 197.094C121.677 195.632 113.784 193.877 106.475 190.953C107.937 181.011 111.152 172.823 116.415 166.389C121.092 160.248 128.109 156.155 137.756 152.938C138.048 152.938 138.341 152.645 138.633 152.645C138.048 152.061 137.464 151.768 136.879 151.476L133.663 149.429C133.371 149.429 133.371 149.136 133.078 149.136C133.078 149.136 133.371 149.136 133.371 148.844L136.294 147.382C136.587 147.089 136.879 146.797 137.464 146.797C137.171 146.797 136.879 146.505 136.587 146.505C125.77 140.948 117.292 134.808 110.568 127.789C103.551 120.186 97.7044 111.414 93.6115 101.764C99.7508 101.179 106.475 101.179 114.368 102.056C117.292 102.348 120.215 102.641 123.431 103.226L130.155 104.395L124.893 100.009C122.262 97.9621 120.215 95.9151 117.876 93.8682C112.322 88.6045 107.937 83.6333 104.428 78.6621C113.199 76.0303 122.554 74.8606 131.617 75.4455C140.387 76.0303 149.45 78.3697 159.974 82.7561C162.021 83.6333 164.067 84.5106 166.406 85.6803C166.406 84.2182 166.114 83.0485 165.821 82.1712L165.529 81.2939C165.237 80.7091 164.652 79.8318 164.36 79.247C159.682 71.0591 157.636 64.3333 157.636 58.1924C157.636 52.0515 159.682 45.9106 163.483 40.647C169.33 43.8636 174.884 47.6651 181.024 52.0515C183.07 53.8061 185.409 55.5606 187.748 57.3152L192.133 61.1167L190.963 55.5606C190.379 53.5136 190.086 51.4667 190.086 49.7121C189.502 45.0333 189.502 41.2318 190.379 38.0152C199.734 41.8167 208.504 46.4955 215.813 51.4667C222.829 56.4379 228.969 62.2864 234.523 69.597C235.693 71.0591 236.57 72.5212 237.739 73.9833C238.616 73.3985 239.493 73.1061 240.078 72.5212C240.37 71.9364 240.663 71.0591 240.955 70.4742C243.001 64.9182 246.217 61.4091 250.895 59.3621C255.572 57.3152 262.004 56.1455 269.605 56.4379C272.528 60.8242 275.16 65.503 276.914 70.7667C277.498 72.5212 278.375 74.2758 278.96 76.3227L279.837 79.247L282.176 77.2C283.345 76.3227 284.515 75.4455 285.684 74.5682C288.9 72.2288 292.408 71.0591 296.209 70.1818C302.056 76.9076 306.733 83.6333 309.657 89.7742C310.826 91.8212 311.411 94.1606 312.288 96.2076C314.042 95.3303 315.796 94.453 317.842 93.2833C317.258 91.5288 316.381 89.4818 315.504 87.7273C312.872 81.8788 308.487 75.7379 303.225 69.3046C311.118 69.597 321.058 71.9364 331.875 76.0303C335.676 77.4924 339.184 78.6621 342.107 79.5394L352.047 71.3515H350.293L347.077 71.0591C343.277 70.4742 338.014 68.7197 331.875 66.3803C320.766 61.9939 310.241 59.3621 301.763 59.0697C299.424 59.0697 297.086 59.0697 294.747 59.6545C292.116 56.7303 290.362 54.0985 288.608 51.7591L285.392 49.7121L284.807 48.8349V48.5424L284.222 48.8349L281.591 49.7121C279.837 50.0045 277.498 50.297 274.575 50.297C272.821 47.6652 271.067 45.3258 268.728 42.9864C261.419 34.7985 251.479 26.0258 240.078 18.4227C233.354 14.0364 228.092 9.65 223.999 6.14091L220.491 2.63182L218.736 0.584849L218.444 0L217.275 2.33939L215.521 4.38636C213.767 5.84848 210.551 7.60303 204.411 9.35758C194.472 11.9894 186.87 16.9606 182.193 23.1015C181.024 24.5636 180.147 26.3182 179.562 28.0727C175.177 26.3182 171.376 24.5636 168.453 22.8091L164.36 19.8848L162.898 19.0076L162.606 18.7152V19.8848V20.1773L162.313 23.1015C161.729 24.8561 160.852 26.903 159.682 28.95C156.466 27.4879 153.543 26.0258 150.327 24.5636C137.756 19.8848 123.431 16.6682 108.814 15.4985C100.336 14.9136 92.7345 13.7439 86.3028 11.697L80.4558 9.65L75.7783 7.60303V7.89545L74.9012 7.60303L76.9477 11.697C76.9477 11.697 76.9477 11.9894 77.24 11.9894L78.7018 16.0833C79.8712 20.7621 79.8712 26.0258 78.7018 31.8742C76.6553 43.2788 78.1171 55.2682 83.087 66.0879C84.2564 68.7197 85.4258 71.0591 87.1798 73.6909C83.087 74.8606 79.2865 75.4454 75.4859 75.7379H70.2237H67.8849L69.0543 76.9076C69.3466 76.9076 69.3466 77.2 69.3466 77.4924L72.5624 81.5864C74.6089 84.5106 76.6553 88.0197 78.4094 91.8212C75.1936 92.4061 72.2701 92.9909 69.3466 93.8682C56.7757 97.9621 45.3741 105.565 36.0189 116.092C30.7567 122.233 25.2021 126.62 19.6475 129.544L14.0929 132.176C13.8005 132.176 13.5082 132.468 13.5082 132.468L9.41528 134.515L9.99998 134.808L9.70763 135.1L13.2158 136.855C13.5082 136.855 13.8005 137.147 13.8005 137.147L19.9398 141.241C26.3715 145.92 33.0955 152.353 40.1118 160.248C52.3904 174.285 66.4231 186.274 81.3329 194.17C85.1334 196.217 88.9339 197.971 92.7345 199.726C91.8574 204.112 90.688 208.206 89.2263 211.423L86.8875 215.517C86.8875 215.809 86.5951 215.809 86.5951 216.102L86.0105 216.979H86.3028V217.271L87.1798 217.564C87.4722 217.564 87.7645 217.564 87.7645 217.564L93.6115 219.026C97.9967 220.488 102.967 222.535 108.229 225.459C107.06 228.676 106.182 231.892 105.89 235.402C104.136 248.853 106.767 264.936 113.199 281.897C116.999 291.547 119.046 299.735 119.63 306.753V313.186C119.63 313.479 119.63 313.771 119.63 313.771L119.338 316.403H119.63V316.695L122.262 316.111C122.554 316.111 122.846 316.111 123.139 315.818L129.863 314.648C137.464 314.064 146.819 314.648 157.636 316.695C176.346 320.205 193.302 320.205 207.335 316.695C210.843 315.818 214.059 314.648 217.275 313.186C221.075 317.573 223.999 321.959 226.045 325.761L228.384 330.732L228.969 332.194V332.486L229.553 331.902L229.846 331.609L233.646 328.685C236.57 326.93 240.37 325.176 244.755 324.006C246.802 327.515 249.141 330.732 252.064 333.656C262.004 345.353 275.16 355.588 290.654 364.068C299.132 368.747 306.148 373.426 311.118 378.105L315.504 382.783C315.796 383.076 315.796 383.076 316.088 383.368L318.135 386V385.708L318.427 386.292L319.304 382.783C319.304 382.491 319.304 382.491 319.304 382.198L321.058 377.227C323.397 371.964 327.49 366.7 332.752 361.436C342.107 352.079 348.539 341.259 351.462 329.855C352.047 327.223 352.632 324.591 352.924 321.959C357.017 322.836 360.525 324.006 363.741 325.468L367.834 327.808L369.588 328.977V328.685H369.88L369.588 327.223L369.003 322.252C369.003 319.327 369.296 316.111 369.88 312.602C372.511 313.771 375.143 314.356 378.066 315.233C388.883 317.865 400.285 317.28 411.101 314.064C416.656 312.309 421.626 311.724 426.011 312.017L430.104 312.602H430.396L434.489 313.771L434.197 313.186H435.074ZM364.91 136.855C365.787 135.1 366.372 133.638 366.957 131.883C369.003 133.053 370.757 134.223 372.511 135.1C372.511 136.27 372.511 137.732 372.511 139.194C370.173 138.609 367.542 137.732 364.91 136.855ZM283.053 57.0227C284.222 58.7773 285.684 60.5318 287.146 62.2864C285.392 62.8712 283.93 63.7485 282.176 64.6258C281.007 61.9939 279.837 59.6545 278.668 57.0227C280.422 57.3152 281.884 57.0227 283.053 57.0227ZM192.133 31.5818C195.933 26.0258 202.657 21.6394 211.72 19.0076C215.521 17.8379 218.736 16.6682 221.368 15.2061C224.876 18.4227 229.261 21.6394 234.523 24.8561C245.925 32.4591 255.572 40.9394 262.881 49.1273C263.173 49.4197 263.173 49.7121 263.466 49.7121C256.449 49.7121 250.602 50.5894 245.925 52.6364C240.955 54.6833 237.739 58.4848 235.4 63.7485C229.553 56.1455 223.706 50.297 216.398 45.3258C209.381 40.3545 200.903 35.9682 191.84 32.1667C191.84 32.1667 191.84 31.8742 192.133 31.5818ZM169.914 30.4121C172.253 31.5818 175.177 32.7515 178.1 34.2136C177.808 36.2606 177.808 38.3076 177.808 40.647C174.592 38.3076 171.376 35.9682 168.16 33.9212C168.745 32.7515 169.33 31.5818 169.914 30.4121ZM93.0268 36.2606C93.6115 32.1667 93.9038 28.3652 93.6115 24.5636C98.8738 25.4409 104.428 26.3182 110.568 26.6106C124.893 27.4879 138.925 30.7045 150.912 35.3833C151.789 35.6758 152.958 36.2606 153.835 36.553C150.035 41.8167 147.988 47.9576 147.988 54.0985C147.988 60.2394 149.742 66.9652 154.128 75.153C143.603 70.7667 134.54 68.4273 126.062 67.8424C116.999 67.2576 107.644 68.4273 98.8738 70.7667C98.2891 69.8894 97.9967 69.0121 97.412 67.8424C92.7345 57.9 91.2727 46.7879 93.0268 36.2606ZM92.7345 82.7561C95.0732 85.6803 97.9967 88.897 100.92 91.8212C96.535 91.5288 92.4421 91.2364 88.3492 91.5288C87.1798 88.897 86.0105 86.5576 84.5487 84.5106C87.1798 84.2182 89.811 83.3409 92.7345 82.7561ZM91.5651 185.689C77.5324 177.794 63.792 166.389 52.0981 152.938C47.1282 147.089 42.1583 142.118 37.1883 138.024C41.2812 135.1 45.0817 131.298 48.8823 126.912C57.3604 116.677 68.1772 109.367 79.8711 105.565C81.0405 105.273 82.2099 104.98 83.3793 104.688C87.4722 114.338 93.3192 123.403 100.628 130.714C107.644 138.024 115.83 144.165 126.939 149.721C116.999 152.938 109.983 157.324 105.013 163.465C100.043 169.606 96.535 178.086 94.7809 187.444C93.6115 186.567 92.7345 186.274 91.5651 185.689ZM112.322 216.979C108.814 215.224 105.305 213.47 102.09 212.008C102.967 209.668 103.551 206.744 104.136 203.82C108.814 205.282 114.076 206.452 119.338 207.329C116.415 210.545 114.368 213.762 112.322 216.979ZM204.996 302.659C191.84 305.876 175.469 305.583 157.343 302.367C149.158 300.905 141.557 300.027 135.125 299.735C133.956 293.886 131.909 287.161 129.278 279.85C122.846 263.767 120.215 248.561 121.677 235.694C121.677 234.817 121.969 233.939 121.969 233.062C133.956 239.495 145.649 243.882 156.466 245.929C165.821 247.683 174.884 247.683 184.239 245.344C185.116 245.052 185.993 245.052 187.163 244.759C186.871 246.806 186.578 248.853 186.578 250.9C185.993 258.795 187.163 266.106 190.086 273.709C193.595 283.067 199.441 292.717 207.335 302.367C206.458 302.074 205.873 302.367 204.996 302.659ZM231.892 317.573C230.138 314.941 227.799 312.017 225.46 308.8C228.676 306.753 231.6 304.121 234.523 301.489C235.985 306.168 237.739 310.555 239.786 314.648C236.862 315.526 234.231 316.403 231.892 317.573ZM340.938 321.667C338.307 332.194 331.875 342.429 322.812 350.909C318.719 354.711 315.504 358.805 312.872 362.606C308.195 359.097 302.933 355.588 296.501 352.079C281.884 343.891 269.02 333.948 259.665 322.836C259.08 321.959 258.203 321.082 257.619 320.205C267.266 317.28 275.452 313.186 281.299 307.63C286.854 302.367 290.654 295.933 292.7 286.868C299.717 296.226 306.733 302.659 314.627 307.923C322.52 312.894 331.583 316.695 341.23 318.742C341.23 320.205 340.938 320.789 340.938 321.667ZM361.11 315.233C358.771 314.356 356.14 313.479 353.509 312.894C353.216 309.677 352.924 306.168 352.339 302.659C355.555 304.998 358.771 307.045 361.987 308.8C361.695 311.139 361.402 313.186 361.11 315.233ZM388.298 195.047C383.036 189.198 376.897 184.52 369.003 180.133C374.266 177.502 377.481 173.7 379.235 169.021C380.697 164.635 381.282 159.371 380.697 153.23C380.99 153.23 380.99 153.523 381.282 153.523C389.76 159.079 398.823 167.267 407.301 176.624C410.809 180.718 414.317 184.227 417.533 187.152C416.364 189.491 415.194 192.415 414.61 195.924C412.855 204.405 409.055 210.838 404.085 214.932C403.793 215.224 403.5 215.517 402.916 215.809C399.115 208.206 393.853 200.895 388.298 195.047ZM397.069 229.553C399.408 229.261 401.454 228.968 403.5 228.676C404.67 230.723 406.132 232.77 407.301 234.817C406.132 235.402 404.962 236.279 403.793 237.156C401.746 234.232 399.408 231.892 397.069 229.553ZM406.716 301.782C396.776 304.706 385.96 304.998 375.727 302.659C374.85 302.367 373.681 302.074 372.804 301.782C374.558 293.594 374.85 285.406 373.389 277.511C372.219 270.2 369.296 262.597 364.326 254.409C372.804 257.333 379.528 258.211 385.667 257.333C391.514 256.456 397.069 254.117 401.746 250.315C402.039 250.9 402.623 251.777 402.916 252.362C408.47 262.305 412.271 274.002 414.317 285.991C415.194 290.962 416.071 295.641 417.533 299.735C414.317 300.027 410.517 300.612 406.716 301.782Z" fill="black"/>
</svg>
