<svg width="213" height="80" viewBox="0 0 213 80" fill="none" xmlns="http://www.w3.org/2000/svg">
<g filter="url(#filter0_d_17_328)">
<rect x="20" width="173" height="40" rx="20" fill="white" shape-rendering="crispEdges"/>
<rect x="25" y="5" width="30" height="30" rx="15" fill="#D14A37"/>
<path d="M40.0007 20.0003C40.459 20.0003 40.8515 19.837 41.1782 19.5103C41.5043 19.1842 41.6673 18.792 41.6673 18.3337C41.6673 17.8753 41.5043 17.4828 41.1782 17.1562C40.8515 16.83 40.459 16.667 40.0007 16.667C39.5423 16.667 39.1501 16.83 38.824 17.1562C38.4973 17.4828 38.334 17.8753 38.334 18.3337C38.334 18.792 38.4973 19.1842 38.824 19.5103C39.1501 19.837 39.5423 20.0003 40.0007 20.0003ZM40.0007 28.3337C37.7645 26.4309 36.0945 24.6634 34.9907 23.0312C33.8862 21.3995 33.334 19.8892 33.334 18.5003C33.334 16.417 34.0043 14.7573 35.3448 13.5212C36.6848 12.285 38.2368 11.667 40.0007 11.667C41.7645 11.667 43.3165 12.285 44.6565 13.5212C45.997 14.7573 46.6673 16.417 46.6673 18.5003C46.6673 19.8892 46.1154 21.3995 45.0115 23.0312C43.907 24.6634 42.2368 26.4309 40.0007 28.3337Z" fill="white"/>
<path d="M66.408 19.952H71.992V21.712H66.408V19.952ZM66.584 26H64.504V14.8H72.68V16.544H66.584V26ZM78.2811 26.112C77.3318 26.112 76.4998 25.9253 75.7851 25.552C75.0811 25.168 74.5318 24.6453 74.1371 23.984C73.7531 23.3227 73.5611 22.5707 73.5611 21.728C73.5611 20.8747 73.7478 20.1227 74.1211 19.472C74.5051 18.8107 75.0278 18.2933 75.6891 17.92C76.3611 17.5467 77.1238 17.36 77.9771 17.36C78.8091 17.36 79.5505 17.5413 80.2011 17.904C80.8518 18.2667 81.3638 18.7787 81.7371 19.44C82.1105 20.1013 82.2971 20.88 82.2971 21.776C82.2971 21.8613 82.2918 21.9573 82.2811 22.064C82.2811 22.1707 82.2758 22.272 82.2651 22.368H75.1451V21.04H81.2091L80.4251 21.456C80.4358 20.9653 80.3345 20.5333 80.1211 20.16C79.9078 19.7867 79.6145 19.4933 79.2411 19.28C78.8785 19.0667 78.4571 18.96 77.9771 18.96C77.4865 18.96 77.0545 19.0667 76.6811 19.28C76.3185 19.4933 76.0305 19.792 75.8171 20.176C75.6145 20.5493 75.5131 20.992 75.5131 21.504V21.824C75.5131 22.336 75.6305 22.7893 75.8651 23.184C76.0998 23.5787 76.4305 23.8827 76.8571 24.096C77.2838 24.3093 77.7745 24.416 78.3291 24.416C78.8091 24.416 79.2411 24.3413 79.6251 24.192C80.0091 24.0427 80.3505 23.808 80.6491 23.488L81.7211 24.72C81.3371 25.168 80.8518 25.5147 80.2651 25.76C79.6891 25.9947 79.0278 26.112 78.2811 26.112ZM86.8583 26.112C86.1436 26.112 85.4556 26.0213 84.7943 25.84C84.1436 25.648 83.6263 25.4187 83.2423 25.152L84.0103 23.632C84.3943 23.8773 84.8529 24.08 85.3863 24.24C85.9196 24.4 86.4529 24.48 86.9863 24.48C87.6156 24.48 88.0689 24.3947 88.3463 24.224C88.6343 24.0533 88.7783 23.824 88.7783 23.536C88.7783 23.3013 88.6823 23.1253 88.4903 23.008C88.2983 22.88 88.0476 22.784 87.7383 22.72C87.4289 22.656 87.0823 22.5973 86.6983 22.544C86.3249 22.4907 85.9463 22.4213 85.5623 22.336C85.1889 22.24 84.8476 22.1067 84.5383 21.936C84.2289 21.7547 83.9783 21.5147 83.7863 21.216C83.5943 20.9173 83.4983 20.5227 83.4983 20.032C83.4983 19.488 83.6529 19.0187 83.9622 18.624C84.2716 18.2187 84.7036 17.9093 85.2582 17.696C85.8236 17.472 86.4903 17.36 87.2583 17.36C87.8343 17.36 88.4156 17.424 89.0023 17.552C89.5889 17.68 90.0743 17.8613 90.4583 18.096L89.6903 19.616C89.2849 19.3707 88.8743 19.2053 88.4583 19.12C88.0529 19.024 87.6476 18.976 87.2423 18.976C86.6343 18.976 86.1809 19.0667 85.8823 19.248C85.5943 19.4293 85.4503 19.6587 85.4503 19.936C85.4503 20.192 85.5463 20.384 85.7383 20.512C85.9303 20.64 86.1809 20.7413 86.4903 20.816C86.7996 20.8907 87.1409 20.9547 87.5143 21.008C87.8983 21.0507 88.2769 21.12 88.6503 21.216C89.0236 21.312 89.3649 21.4453 89.6743 21.616C89.9943 21.776 90.2503 22.0053 90.4423 22.304C90.6343 22.6027 90.7303 22.992 90.7303 23.472C90.7303 24.0053 90.5703 24.4693 90.2503 24.864C89.9409 25.2587 89.4983 25.568 88.9223 25.792C88.3463 26.0053 87.6583 26.112 86.8583 26.112ZM96.4425 22.384V20.72H100.843V22.384H96.4425ZM107.645 26V14.8H109.357L114.253 22.976H113.357L118.173 14.8H119.885L119.901 26H117.933L117.917 17.888H118.333L114.237 24.72H113.309L109.149 17.888H109.629V26H107.645ZM126.574 26.112C125.699 26.112 124.921 25.9253 124.238 25.552C123.555 25.168 123.017 24.6453 122.622 23.984C122.227 23.3227 122.03 22.5707 122.03 21.728C122.03 20.8747 122.227 20.1227 122.622 19.472C123.017 18.8107 123.555 18.2933 124.238 17.92C124.921 17.5467 125.699 17.36 126.574 17.36C127.459 17.36 128.243 17.5467 128.926 17.92C129.619 18.2933 130.158 18.8053 130.542 19.456C130.937 20.1067 131.134 20.864 131.134 21.728C131.134 22.5707 130.937 23.3227 130.542 23.984C130.158 24.6453 129.619 25.168 128.926 25.552C128.243 25.9253 127.459 26.112 126.574 26.112ZM126.574 24.4C127.065 24.4 127.502 24.2933 127.886 24.08C128.27 23.8667 128.569 23.5573 128.782 23.152C129.006 22.7467 129.118 22.272 129.118 21.728C129.118 21.1733 129.006 20.6987 128.782 20.304C128.569 19.8987 128.27 19.5893 127.886 19.376C127.502 19.1627 127.07 19.056 126.59 19.056C126.099 19.056 125.662 19.1627 125.278 19.376C124.905 19.5893 124.606 19.8987 124.382 20.304C124.158 20.6987 124.046 21.1733 124.046 21.728C124.046 22.272 124.158 22.7467 124.382 23.152C124.606 23.5573 124.905 23.8667 125.278 24.08C125.662 24.2933 126.094 24.4 126.574 24.4ZM133.046 26V17.456H134.95V19.808L134.726 19.12C134.982 18.544 135.382 18.1067 135.926 17.808C136.481 17.5093 137.169 17.36 137.99 17.36V19.264C137.905 19.2427 137.825 19.232 137.75 19.232C137.676 19.2213 137.601 19.216 137.526 19.216C136.769 19.216 136.166 19.44 135.718 19.888C135.27 20.3253 135.046 20.9813 135.046 21.856V26H133.046ZM143.449 26.112C142.574 26.112 141.796 25.9253 141.113 25.552C140.43 25.168 139.892 24.6453 139.497 23.984C139.102 23.3227 138.905 22.5707 138.905 21.728C138.905 20.8747 139.102 20.1227 139.497 19.472C139.892 18.8107 140.43 18.2933 141.113 17.92C141.796 17.5467 142.574 17.36 143.449 17.36C144.334 17.36 145.118 17.5467 145.801 17.92C146.494 18.2933 147.033 18.8053 147.417 19.456C147.812 20.1067 148.009 20.864 148.009 21.728C148.009 22.5707 147.812 23.3227 147.417 23.984C147.033 24.6453 146.494 25.168 145.801 25.552C145.118 25.9253 144.334 26.112 143.449 26.112ZM143.449 24.4C143.94 24.4 144.377 24.2933 144.761 24.08C145.145 23.8667 145.444 23.5573 145.657 23.152C145.881 22.7467 145.993 22.272 145.993 21.728C145.993 21.1733 145.881 20.6987 145.657 20.304C145.444 19.8987 145.145 19.5893 144.761 19.376C144.377 19.1627 143.945 19.056 143.465 19.056C142.974 19.056 142.537 19.1627 142.153 19.376C141.78 19.5893 141.481 19.8987 141.257 20.304C141.033 20.6987 140.921 21.1733 140.921 21.728C140.921 22.272 141.033 22.7467 141.257 23.152C141.481 23.5573 141.78 23.8667 142.153 24.08C142.537 24.2933 142.969 24.4 143.449 24.4ZM153.841 26.112C152.945 26.112 152.145 25.9253 151.441 25.552C150.748 25.168 150.204 24.6453 149.809 23.984C149.415 23.3227 149.217 22.5707 149.217 21.728C149.217 20.8747 149.415 20.1227 149.809 19.472C150.204 18.8107 150.748 18.2933 151.441 17.92C152.145 17.5467 152.945 17.36 153.841 17.36C154.673 17.36 155.404 17.5307 156.033 17.872C156.673 18.2027 157.159 18.6933 157.489 19.344L155.953 20.24C155.697 19.8347 155.383 19.536 155.009 19.344C154.647 19.152 154.252 19.056 153.825 19.056C153.335 19.056 152.892 19.1627 152.497 19.376C152.103 19.5893 151.793 19.8987 151.569 20.304C151.345 20.6987 151.233 21.1733 151.233 21.728C151.233 22.2827 151.345 22.7627 151.569 23.168C151.793 23.5627 152.103 23.8667 152.497 24.08C152.892 24.2933 153.335 24.4 153.825 24.4C154.252 24.4 154.647 24.304 155.009 24.112C155.383 23.92 155.697 23.6213 155.953 23.216L157.489 24.112C157.159 24.752 156.673 25.248 156.033 25.6C155.404 25.9413 154.673 26.112 153.841 26.112ZM163.013 26.112C162.117 26.112 161.317 25.9253 160.613 25.552C159.92 25.168 159.376 24.6453 158.981 23.984C158.587 23.3227 158.389 22.5707 158.389 21.728C158.389 20.8747 158.587 20.1227 158.981 19.472C159.376 18.8107 159.92 18.2933 160.613 17.92C161.317 17.5467 162.117 17.36 163.013 17.36C163.845 17.36 164.576 17.5307 165.205 17.872C165.845 18.2027 166.331 18.6933 166.661 19.344L165.125 20.24C164.869 19.8347 164.555 19.536 164.181 19.344C163.819 19.152 163.424 19.056 162.997 19.056C162.507 19.056 162.064 19.1627 161.669 19.376C161.275 19.5893 160.965 19.8987 160.741 20.304C160.517 20.6987 160.405 21.1733 160.405 21.728C160.405 22.2827 160.517 22.7627 160.741 23.168C160.965 23.5627 161.275 23.8667 161.669 24.08C162.064 24.2933 162.507 24.4 162.997 24.4C163.424 24.4 163.819 24.304 164.181 24.112C164.555 23.92 164.869 23.6213 165.125 23.216L166.661 24.112C166.331 24.752 165.845 25.248 165.205 25.6C164.576 25.9413 163.845 26.112 163.013 26.112ZM172.105 26.112C171.23 26.112 170.452 25.9253 169.769 25.552C169.086 25.168 168.548 24.6453 168.153 23.984C167.758 23.3227 167.561 22.5707 167.561 21.728C167.561 20.8747 167.758 20.1227 168.153 19.472C168.548 18.8107 169.086 18.2933 169.769 17.92C170.452 17.5467 171.23 17.36 172.105 17.36C172.99 17.36 173.774 17.5467 174.457 17.92C175.15 18.2933 175.689 18.8053 176.073 19.456C176.468 20.1067 176.665 20.864 176.665 21.728C176.665 22.5707 176.468 23.3227 176.073 23.984C175.689 24.6453 175.15 25.168 174.457 25.552C173.774 25.9253 172.99 26.112 172.105 26.112ZM172.105 24.4C172.596 24.4 173.033 24.2933 173.417 24.08C173.801 23.8667 174.1 23.5573 174.313 23.152C174.537 22.7467 174.649 22.272 174.649 21.728C174.649 21.1733 174.537 20.6987 174.313 20.304C174.1 19.8987 173.801 19.5893 173.417 19.376C173.033 19.1627 172.601 19.056 172.121 19.056C171.63 19.056 171.193 19.1627 170.809 19.376C170.436 19.5893 170.137 19.8987 169.913 20.304C169.689 20.6987 169.577 21.1733 169.577 21.728C169.577 22.272 169.689 22.7467 169.913 23.152C170.137 23.5573 170.436 23.8667 170.809 24.08C171.193 24.2933 171.625 24.4 172.105 24.4Z" fill="black"/>
</g>
<defs>
<filter id="filter0_d_17_328" x="0" y="0" width="213" height="80" filterUnits="userSpaceOnUse" color-interpolation-filters="sRGB">
<feFlood flood-opacity="0" result="BackgroundImageFix"/>
<feColorMatrix in="SourceAlpha" type="matrix" values="0 0 0 0 0 0 0 0 0 0 0 0 0 0 0 0 0 0 127 0" result="hardAlpha"/>
<feOffset dy="20"/>
<feGaussianBlur stdDeviation="10"/>
<feComposite in2="hardAlpha" operator="out"/>
<feColorMatrix type="matrix" values="0 0 0 0 0.48 0 0 0 0 0.35 0 0 0 0 1 0 0 0 0.08 0"/>
<feBlend mode="normal" in2="BackgroundImageFix" result="effect1_dropShadow_17_328"/>
<feBlend mode="normal" in="SourceGraphic" in2="effect1_dropShadow_17_328" result="shape"/>
</filter>
</defs>
</svg>
