<svg width="39" height="39" viewBox="0 0 39 39" fill="none" xmlns="http://www.w3.org/2000/svg">
<circle cx="19.5" cy="19.5" r="19.5" fill="#949494" fill-opacity="0.05"/>
<g clip-path="url(#clip0_31_42)">
<path d="M27.4365 29.0524C27.4021 29.0524 27.3673 29.0486 27.3331 29.0418C27.2997 29.0348 27.2666 29.025 27.2344 29.0118C27.2027 28.9986 27.1722 28.9823 27.1438 28.9632C27.1148 28.9438 27.0878 28.9222 27.0635 28.8972C27.0394 28.8731 27.0171 28.8462 26.9982 28.8177C26.9786 28.7887 26.9627 28.758 26.9496 28.7265C26.9364 28.6947 26.9259 28.6616 26.9191 28.6278C26.9123 28.5936 26.9092 28.5592 26.9092 28.5244C26.9092 28.4902 26.9123 28.4554 26.9191 28.4216C26.9259 28.3878 26.936 28.3547 26.9491 28.3229C26.9623 28.2908 26.9786 28.2603 26.9976 28.2319C27.0171 28.2028 27.0394 28.1758 27.0635 28.1515C27.0878 28.1274 27.1148 28.1052 27.1438 28.0862C27.1722 28.0673 27.2027 28.0508 27.2344 28.0376C27.2666 28.0244 27.2997 28.0146 27.3331 28.0078C27.4017 27.994 27.4711 27.994 27.5393 28.0078C27.5731 28.0146 27.6063 28.0244 27.6378 28.0376C27.6699 28.0508 27.7006 28.0673 27.729 28.0862C27.7581 28.1052 27.7849 28.1274 27.8092 28.1515C27.8335 28.1758 27.8557 28.2028 27.8747 28.2319C27.8936 28.2603 27.9099 28.2908 27.9231 28.3229C27.9363 28.3547 27.9464 28.3878 27.9532 28.4216C27.96 28.4554 27.9637 28.4902 27.9637 28.5244C27.9637 28.5592 27.96 28.5936 27.9532 28.6278C27.9464 28.6616 27.9363 28.6947 27.9231 28.7265C27.9099 28.758 27.8936 28.7887 27.8747 28.8177C27.8557 28.8462 27.8335 28.8731 27.8092 28.8972C27.7849 28.9222 27.7581 28.9438 27.729 28.9632C27.7006 28.9821 27.6699 28.9986 27.6378 29.0118C27.6063 29.025 27.5731 29.035 27.5393 29.0418C27.5055 29.0486 27.4707 29.0524 27.4365 29.0524Z" fill="#CAA356"/>
<path d="M20.0817 22.872H18.6173C18.4593 22.872 18.3095 22.8011 18.2094 22.6787C18.1093 22.5566 18.0691 22.3957 18.1002 22.2408L18.5932 19.7831H16.3454L15.6133 20.393C15.5185 20.4721 15.399 20.5152 15.2759 20.5152H13.8112C13.6363 20.5152 13.4728 20.4285 13.3747 20.2837C13.2765 20.1386 13.2567 19.9547 13.3216 19.7922L13.9756 18.1574L13.3216 16.5226C13.2567 16.3601 13.2765 16.1761 13.3747 16.0311C13.4728 15.8863 13.6363 15.7994 13.8112 15.7994H15.2759C15.399 15.7994 15.5185 15.8426 15.6133 15.9217L16.3454 16.5317H18.5932L18.1002 14.074C18.0691 13.9189 18.1093 13.7582 18.2094 13.636C18.3095 13.5137 18.4593 13.4428 18.6173 13.4428H20.0817C20.2646 13.4428 20.4346 13.5376 20.5305 13.6933L22.2819 16.5317H24.1091C25.0055 16.5317 25.7348 17.2609 25.7348 18.1574C25.7348 19.0539 25.0055 19.7831 24.1091 19.7831H22.2819L20.5305 22.6215C20.4346 22.7772 20.2646 22.872 20.0817 22.872ZM19.261 21.8173H19.7875L21.5389 18.9789C21.6349 18.8232 21.8048 18.7284 21.9877 18.7284H24.1091C24.424 18.7284 24.6801 18.4724 24.6801 18.1574C24.6801 17.8424 24.424 17.5864 24.1091 17.5864H21.9877C21.8048 17.5864 21.6351 17.4916 21.5389 17.3359L19.7875 14.4975H19.261L19.7539 16.9552C19.7851 17.1103 19.7449 17.271 19.6448 17.3934C19.5447 17.5155 19.3949 17.5864 19.2369 17.5864H16.1546C16.0312 17.5864 15.9118 17.5431 15.817 17.4642L15.0849 16.8541H14.5903L15.0332 17.9615C15.0835 18.0873 15.0835 18.2276 15.0332 18.3533L14.5903 19.4607H15.0849L15.817 18.8508C15.9118 18.7717 16.0312 18.7284 16.1546 18.7284H19.2369C19.3949 18.7284 19.5447 18.7995 19.6448 18.9216C19.7449 19.0438 19.7851 19.2047 19.7539 19.3596L19.261 21.8173Z" fill="#CAA356"/>
<path d="M25.1105 28.7627H13.9062C13.6152 28.7627 13.3789 28.5266 13.3789 28.2353V24.9924C13.3789 24.7011 13.6152 24.465 13.9062 24.465H25.1105C25.4017 24.465 25.6378 24.7011 25.6378 24.9924V28.2353C25.6378 28.5266 25.4017 28.7627 25.1105 28.7627ZM14.4336 27.708H24.5831V25.5197H14.4336V27.708Z" fill="#CAA356"/>
<path d="M30.0753 7.05531H27.9645V6.52734C27.9645 6.23607 27.7282 6 27.4371 6H10.4398C9.30022 6 8.37305 6.92697 8.37305 8.06653V30.9333C8.37305 32.0728 9.30002 33 10.4396 33H30.0753C30.3666 33 30.6026 32.7639 30.6026 32.4727V7.58265C30.6026 7.29137 30.3666 7.05531 30.0753 7.05531ZM26.9096 7.05469V13.4022L25.4236 12.7016C25.2812 12.6344 25.1164 12.6344 24.9741 12.7014L23.4839 13.4028V7.05469H26.9096ZM29.548 31.9453H12.1079V10.5516C12.1079 10.2604 11.8718 10.0243 11.5806 10.0243C11.2893 10.0243 11.0532 10.2604 11.0532 10.5516V31.9453H10.4398C9.88174 31.9453 9.42773 31.4913 9.42773 30.9333V8.06653C9.42773 7.5087 9.88174 7.05469 10.4398 7.05469H22.4292V14.234C22.4292 14.4144 22.5217 14.5823 22.6742 14.6791C22.7599 14.7335 22.8581 14.7613 22.9568 14.7613C23.0332 14.7613 23.1098 14.7446 23.1813 14.7111L25.1984 13.7614L26.9096 14.5683V25.967C26.9096 26.2582 27.1459 26.4943 27.4369 26.4943C27.7282 26.4943 27.9643 26.2582 27.9643 25.967V8.10999H29.548V31.9453Z" fill="#CAA356"/>
</g>
<defs>
<clipPath id="clip0_31_42">
<rect width="27" height="27" fill="white" transform="translate(6 6)"/>
</clipPath>
</defs>
</svg>
