<svg width="440" height="956" viewBox="0 0 440 956" fill="none" xmlns="http://www.w3.org/2000/svg">
<g clip-path="url(#clip0_128_84)">
<rect width="440" height="956" fill="white"/>
<g clip-path="url(#clip1_128_84)">
<rect width="440" height="976" transform="translate(0 -20)" fill="white"/>
<g opacity="0.59">
<g clip-path="url(#clip2_128_84)">
<path d="M30.8101 855.953C43.2004 852.108 56.52 847.301 70.7688 841.854C67.981 833.523 66.1225 825.191 64.8834 817.501C48.776 823.269 32.6686 828.396 16.2515 832.561L30.8101 855.953Z" fill="#2B3760"/>
<path d="M179.494 764.629C172.369 768.795 164.935 772.64 157.811 776.485C158.43 779.369 159.359 782.574 160.598 785.457C161.837 788.982 162.767 792.186 163.386 794.43C163.696 794.43 163.696 794.43 164.006 794.109L165.245 793.789L164.935 795.07C164.625 795.711 164.625 796.673 164.315 797.313C164.935 797.313 165.555 797.313 166.174 797.313C172.679 793.789 179.184 790.264 185.689 786.419C265.296 739.956 354.816 670.102 439.69 565C440 565 328.177 681.317 179.494 764.629Z" fill="#2B3760"/>
<path d="M166.484 739.956C165.555 740.917 164.316 742.199 163.387 743.16C159.67 747.646 156.882 752.773 156.262 759.502C156.262 760.143 156.262 761.104 156.262 761.745C162.767 758.541 169.272 755.336 176.087 752.132C242.994 718.166 316.717 668.82 389.82 597.363C389.82 597.363 295.963 674.908 170.511 733.547C166.794 735.149 163.077 737.072 159.36 738.674C159.979 738.674 160.599 738.994 161.218 738.994C163.077 739.635 164.935 739.635 166.484 739.956Z" fill="#2C457B"/>
<path d="M5.10034 814.297C23.0663 810.451 42.8908 805.004 64.2641 798.275C64.2641 796.993 64.5738 796.032 64.5738 794.75C64.8836 792.507 65.1933 790.264 65.8129 788.021C61.4762 785.778 57.4494 784.176 54.0421 782.894L48.1567 781.292H47.8469L45.6786 780.972C27.7127 785.458 9.74671 789.303 -8.21924 792.507L5.10034 814.297Z" fill="#2C457B"/>
<path d="M-20.6097 771.999C-0.165683 770.076 22.7564 766.872 48.1565 761.425C48.4663 760.463 48.776 759.502 48.776 758.541C45.9882 757.259 43.2004 755.657 40.7223 754.375C36.3857 751.812 32.0491 748.928 27.7125 746.044C7.57826 749.248 -12.556 751.491 -33 752.453L-20.6097 771.999Z" fill="#35579C"/>
<path d="M142.943 733.227C150.996 730.343 159.05 726.818 167.413 723.614C220.072 701.504 277.068 670.102 335.302 625.562C335.302 625.562 262.199 672.024 163.077 708.874C151.306 713.36 138.916 717.526 126.525 721.371C130.552 725.216 135.199 728.741 140.155 731.945C141.084 732.266 142.013 732.906 142.943 733.227Z" fill="#35579C"/>
</g>
<g clip-path="url(#clip3_128_84)">
<path d="M217.348 645.761C216.41 642.723 215.303 639.706 213.958 636.698C212.976 634.501 211.846 632.305 210.573 630.108C209.063 627.498 207.343 624.884 205.324 622.249C198.499 613.377 189.624 605.24 180.383 598.353C173.437 593.179 168.971 589.028 166.165 586.03L165.58 585.35L163.142 582.494C163.017 582.327 162.9 582.171 162.793 582.025L162.766 582.05L162.726 582C162.677 582.106 162.619 582.222 162.556 582.338L160.819 584.68C160.337 585.184 159.742 585.728 159.037 586.282C158.103 587.023 156.964 587.799 155.548 588.58C154.213 589.32 152.623 590.076 150.774 590.806C150.635 590.862 150.51 590.917 150.367 590.978C142.801 593.905 136.105 598.585 132.161 605.336C128.677 611.316 128.146 618.49 129.043 626.425C125.479 623.277 121.803 620.354 117.935 617.694C115.014 615.689 111.972 613.845 108.787 612.198C106.911 611.231 104.995 610.304 103.003 609.482C91.7473 604.822 79.9152 602.676 68.8604 602.303C62.4374 602.087 57.3052 601.346 53.321 600.474C52.0882 600.202 50.9537 599.92 49.9398 599.638L44.9908 597.945C44.7674 597.855 44.553 597.759 44.361 597.673L44.3789 597.734L44.3074 597.714C44.3788 597.885 44.4592 598.071 44.5352 598.268L45.3972 601.144L45.8305 602.585C46.1923 604.238 46.4826 606.238 46.6256 608.56C46.7506 610.54 46.7596 612.772 46.5988 615.261C46.5184 616.48 46.4156 617.735 46.2504 619.08C45.0176 629.035 45.8841 640.255 50.1408 651.454C53.8793 661.283 60.213 669.878 67.9045 678.005C57.5464 676.896 47.7065 677.335 38.7286 681.153C28.3571 685.567 20.0045 693.386 13.7379 702.575C11.8753 705.306 10.0574 707.583 8.32436 709.507C6.29205 711.759 4.38481 713.503 2.65176 714.853C2.0711 715.306 1.50384 715.739 0.963382 716.112L-3.3871 718.566C-3.60596 718.661 -3.81143 718.747 -3.99902 718.818L-3.92756 718.873L-3.99456 718.908C-3.78463 719.034 -3.55683 719.175 -3.31563 719.326L1.65124 723.014C2.4195 723.654 3.25475 724.405 4.13021 725.201C5.56846 726.526 7.13177 728.047 8.82015 729.856C9.18195 730.239 9.56161 730.667 9.93234 731.07C10.3433 731.524 10.7542 731.977 11.1785 732.461C11.7726 733.136 12.3756 733.841 12.9964 734.577C14.5553 736.441 16.1945 738.491 17.9008 740.773C18.8432 742.033 19.8259 743.277 20.8175 744.522C29.1075 754.895 39.0368 764.548 50.1944 771.732C60.9723 778.659 71.7904 782.06 82.7247 783.818C76.6189 791.35 72.0942 800.026 70.9731 811.326C69.6822 824.339 72.3622 838.874 77.2263 852.819C79.3971 859.056 80.7371 864.215 81.55 868.477C82.1083 871.404 82.4255 873.923 82.5684 876.009L82.5371 881.858C82.5103 882.12 82.4835 882.367 82.4567 882.594L82.5326 882.584V882.669C82.7426 882.609 82.9748 882.548 83.216 882.488L88.7368 881.727C89.7954 881.667 90.9969 881.647 92.2877 881.667C96.9375 881.742 103.119 882.422 111.195 884.372C113.884 885.017 116.568 885.546 119.257 885.999C130.2 887.853 141.014 888.03 150.595 885.652C160.739 883.138 168.158 877.561 174.366 870.528C177.189 881.788 181.517 892.68 189.173 903.018C197.847 914.726 209.13 924.429 220.712 931.84C223.941 933.906 226.737 935.881 229.154 937.735C230.538 938.798 231.78 939.816 232.928 940.793C235.117 942.662 236.912 944.375 238.341 945.881L242.138 950.375C242.299 950.592 242.446 950.798 242.58 950.995L242.607 950.924L242.661 950.99C242.71 950.788 242.763 950.572 242.826 950.345L244.595 945.675C244.805 945.237 245.037 944.783 245.283 944.31C246.288 942.41 247.65 940.254 249.437 937.911C251.058 935.79 253.028 933.518 255.475 931.12C263.091 923.654 269.277 914.273 272.243 903.27C274.771 893.904 274.298 884.075 272.413 873.893C280.555 880.876 288.948 886.387 298.199 888.992C308.512 891.899 318.517 891.385 327.187 888.916C328.111 888.654 328.987 888.438 329.849 888.241C331.854 887.783 333.69 887.491 335.347 887.329C337.867 887.083 339.993 887.128 341.726 887.314L345.621 888.08C345.799 888.136 345.969 888.191 346.125 888.246L346.098 888.176L346.157 888.186C346.063 888.005 345.964 887.803 345.866 887.586L345.232 885.989L343.972 882.82C343.392 881.118 342.793 879.067 342.213 876.689C341.382 873.243 340.605 869.087 340.037 864.099C338.769 852.965 335.865 841.206 330.769 830.294C329.8 828.218 328.746 826.233 327.638 824.304C325.222 820.102 322.497 816.218 319.531 812.55C317.686 810.278 315.766 808.076 313.756 805.94C321.077 806.006 327.562 804.666 332.663 800.323C338.322 795.506 341.891 788.075 343.852 779.949C343.946 779.551 344.044 779.193 344.142 778.821C344.732 776.569 345.366 774.689 346.009 773.138C346.871 771.057 347.747 769.535 348.551 768.452L350.48 766.392C350.578 766.316 350.677 766.241 350.766 766.18L350.717 766.14L350.744 766.11C350.605 766.019 350.453 765.913 350.297 765.802L348.582 764.417L346.898 763.057C346.076 762.326 345.143 761.444 344.129 760.437C341.569 757.888 338.429 754.401 334.686 749.63C328.044 741.161 320.384 733.146 312.242 727.025C310.526 728.682 308.82 730.33 307.114 731.962C314.872 737.917 322.166 745.58 328.505 753.676C331.787 757.872 334.592 761.021 336.951 763.455C337.469 763.989 337.996 764.533 338.469 764.991C337.331 766.906 336.12 769.727 335.048 773.737C334.963 774.055 334.869 774.327 334.789 774.664C332.819 782.594 329.255 789.829 323.645 794.499C318.794 798.544 312.697 799.89 305.841 799.9C304.081 799.905 302.281 799.819 300.436 799.673C302.151 801.366 303.822 803.079 305.434 804.827C311.737 811.648 317.244 819.064 321.38 827.966C326.369 838.713 329.183 850.28 330.376 861.238C330.818 865.308 331.417 868.774 332.064 871.787C332.444 873.561 332.837 875.218 333.239 876.644C330.675 876.578 327.464 876.86 323.627 877.732C322.899 877.898 322.184 878.044 321.407 878.261C312.92 880.584 303.139 881.007 293.062 878.115C284.388 875.631 276.491 870.563 268.844 864.129C266.905 862.492 264.976 860.769 263.064 858.981C263.631 861.449 264.132 863.893 264.543 866.316C266.173 875.833 266.463 885.027 264.033 893.793C261.059 904.499 254.913 913.608 247.373 920.847C245.426 922.717 243.786 924.51 242.375 926.213C240.548 928.42 239.119 930.48 238.02 932.329C237.654 931.987 237.261 931.629 236.863 931.266C236.233 930.697 235.554 930.107 234.84 929.508C233.616 928.475 232.258 927.397 230.771 926.268C228.627 924.656 226.224 922.968 223.468 921.195C212.23 913.971 201.282 904.534 192.845 893.169C185.702 883.546 181.522 873.435 178.748 862.991C178.051 860.366 177.444 857.721 176.903 855.051C175.532 856.829 174.103 858.537 172.606 860.154C166.693 866.543 159.644 871.565 150.13 873.833C145.199 875.011 139.92 875.47 134.47 875.399C127.083 875.299 119.378 874.2 111.735 872.311C105.763 870.835 100.855 870.079 96.8526 869.752C95.8387 869.666 94.8918 869.616 93.994 869.581C93.7885 869.575 93.5696 869.565 93.3731 869.56C93.1766 868.165 92.9041 866.633 92.5602 864.976C91.7383 861.016 90.4564 856.3 88.4777 850.683C86.8429 846.048 85.4761 841.347 84.4042 836.657C82.6354 828.934 81.7242 821.266 81.9788 813.991C82.0235 812.762 82.0681 811.532 82.1753 810.328C83.149 799.774 87.1601 791.572 92.6585 784.448C94.0342 782.665 95.5037 780.947 97.0402 779.279C94.4451 778.997 91.8634 778.639 89.2772 778.176C88.4152 778.019 87.5531 777.843 86.6866 777.667C78.7494 776.045 70.8659 773.41 63.0091 768.971C61.6736 768.22 60.3381 767.419 59.007 766.558C51.8962 761.963 45.299 756.311 39.3182 750.129C35.1151 745.791 31.2023 741.191 27.6603 736.476C26.3516 734.728 25.0876 733.126 23.8637 731.639C22.4165 729.866 21.0274 728.279 19.7142 726.838C17.9812 724.944 16.3598 723.301 14.8813 721.911C14.8322 721.866 14.7741 721.81 14.725 721.765C14.8277 721.679 14.9349 721.578 15.0377 721.488C16.7484 720.012 18.6154 718.143 20.5763 715.78C21.9029 714.173 23.2786 712.344 24.6766 710.248C30.7155 701.19 38.7956 693.456 48.8544 689.063C57.2114 685.41 66.3635 684.821 75.998 685.693C78.4189 685.914 80.8621 686.222 83.3411 686.599C81.3803 684.69 79.482 682.755 77.664 680.796C70.5711 673.143 64.7243 665.057 61.1912 655.847C57.0015 644.925 56.0858 633.977 57.2114 624.254C57.341 623.13 57.4169 622.093 57.4839 621.065C57.7519 616.964 57.5822 613.553 57.1846 610.817C57.8904 610.969 58.6765 611.11 59.4626 611.251C63.0538 611.906 67.4042 612.43 72.6793 612.576C83.5421 612.878 95.1687 614.923 106.237 619.473C115.519 623.287 123.465 628.798 130.911 635.252C132.791 636.884 134.645 638.582 136.476 640.32C136.119 638.31 135.833 636.34 135.636 634.416C134.863 626.969 135.435 620.218 138.669 614.551C142.475 607.875 148.978 603.235 156.334 600.303C156.419 600.268 156.495 600.233 156.576 600.197C159.099 599.185 161.096 598.137 162.673 597.129C163.646 596.51 164.459 595.895 165.147 595.315C167.903 598.001 171.749 601.361 177.091 605.331C186.216 612.112 194.975 620.138 201.702 628.894C207.424 636.35 210.858 643.701 213.244 651.177C213.824 652.996 214.338 654.83 214.807 656.669C215.079 656.533 215.356 656.397 215.629 656.26C216.442 655.475 217.259 654.694 218.13 653.993C221.699 651.127 225.79 649.076 230.9 648.351C235.769 645.791 240.593 643.217 245.35 640.622C241.571 639.821 237.886 639.358 234.424 639.398C227.22 639.514 221.895 642.008 217.348 645.761Z" fill="#D14A37"/>
</g>
</g>
</g>
</g>
<defs>
<clipPath id="clip0_128_84">
<rect width="440" height="956" fill="white"/>
</clipPath>
<clipPath id="clip1_128_84">
<rect width="440" height="976" fill="white" transform="translate(0 -20)"/>
</clipPath>
<clipPath id="clip2_128_84">
<rect width="473" height="290.953" fill="white" transform="translate(-33 565)"/>
</clipPath>
<clipPath id="clip3_128_84">
<rect width="354.774" height="369" fill="white" transform="translate(-3.03223 582)"/>
</clipPath>
</defs>
</svg>
