<svg width="31" height="26" viewBox="0 0 31 26" fill="none" xmlns="http://www.w3.org/2000/svg">
<path d="M28.8897 9.83916C29.485 9.82316 30.0606 9.80397 30.669 9.78797C29.678 11.5893 28.7 13.3682 27.7058 15.1726C26.6068 13.4321 25.5177 11.714 24.4187 9.97034C24.9944 9.95114 25.5406 9.93514 26.1129 9.91915C26.09 9.82956 26.0737 9.75278 26.0508 9.67919C24.8864 5.83345 22.3648 3.2291 18.489 1.94932C14.3026 0.567155 9.65828 1.66137 6.43995 4.70404C4.78827 6.26218 3.67298 8.13065 3.07445 10.2967C3.06136 10.3415 3.04828 10.3863 3.00903 10.4279C3.01885 10.3671 3.02539 10.3031 3.03847 10.2423C3.98369 5.43352 7.70897 1.57178 12.5822 0.407183C16.3304 -0.485464 19.8627 0.090437 23.1039 2.12849C25.9723 3.92978 27.8562 6.48614 28.8407 9.67599C28.857 9.72718 28.8701 9.77517 28.8897 9.83916Z" fill="#18599C"/>
<path d="M0 16.1837C0.964843 14.4304 1.94277 12.6515 2.93705 10.847C4.03599 12.5843 5.12185 14.2992 6.22406 16.0461C5.64842 16.0653 5.09895 16.0813 4.50696 16.1037C4.66068 16.5612 4.77843 16.9995 4.95504 17.4155C6.59691 21.2964 9.52742 23.6832 13.74 24.4542C18.682 25.3597 23.6959 23.0465 26.2536 18.7912C26.8554 17.7866 27.3067 16.7244 27.6076 15.5982C27.6207 15.5534 27.637 15.5086 27.6567 15.4638C27.5291 16.2924 27.3067 17.0987 27.0025 17.8858C25.3901 22.0099 21.6092 25.0525 17.148 25.8044C12.2094 26.6363 7.30337 24.7806 4.19298 20.9029C3.09731 19.5367 2.30581 18.017 1.81194 16.35C1.76942 16.2061 1.71055 16.1773 1.56664 16.1805C1.04661 16.1933 0.529846 16.1837 0 16.1837Z" fill="#18599C"/>
<path d="M13.5667 21.0722C14.0213 19.159 14.4726 17.2489 14.9305 15.3196C13.655 15.3196 12.4056 15.3196 11.1333 15.3196C11.1562 15.2492 11.1725 15.1949 11.1922 15.1437C12.2911 12.4465 13.3868 9.74939 14.4857 7.05226C14.5184 6.97227 14.5446 6.92108 14.6525 6.92108C15.9215 6.92748 17.1906 6.92428 18.4628 6.92428C18.4727 6.92428 18.4825 6.92748 18.5184 6.93708C17.7302 8.86955 16.9453 10.802 16.1505 12.7601C17.2789 12.7601 18.3843 12.7601 19.5291 12.7601C17.5372 15.5564 15.5716 18.3175 13.6059 21.0786C13.5896 21.0754 13.5798 21.0754 13.5667 21.0722Z" fill="#18599C"/>
</svg>
