<svg width="25" height="31" viewBox="0 0 25 31" fill="none" xmlns="http://www.w3.org/2000/svg">
<g clip-path="url(#clip0_28_51)">
<path d="M0 17.4393C0.130284 17.2935 0.246091 17.1185 0.405327 17.0165C1.75159 16.1707 3.09786 15.3396 4.44412 14.4939C4.97973 14.1585 5.31268 14.3189 5.37058 14.9751C5.48639 16.2291 5.52982 17.4976 5.71801 18.7371C6.09438 21.2451 7.57093 22.9073 9.84366 23.9135C10.0898 24.0301 10.3648 24.103 10.6543 24.2051C10.6543 19.714 10.6543 15.2667 10.6543 10.7756C10.553 10.7756 10.4517 10.7756 10.3358 10.7756C9.65547 10.7756 8.9751 10.7756 8.29473 10.7756C7.8315 10.7756 7.65779 10.6007 7.65779 10.1341C7.65779 9.50706 7.65779 8.88006 7.65779 8.25306C7.65779 7.81562 7.84598 7.64064 8.29473 7.62606C9.07643 7.62606 9.85814 7.62606 10.6833 7.62606C10.6833 7.17404 10.6977 6.75118 10.6688 6.31374C10.6688 6.24083 10.553 6.15334 10.4806 6.09501C9.2791 5.16181 8.83034 3.58702 9.36595 2.15804C9.88709 0.787395 11.2768 -0.102069 12.7678 0.0145817C14.1285 0.116651 15.359 1.10818 15.7499 2.42051C16.1407 3.77658 15.6775 5.26388 14.5628 6.09501C14.4036 6.21167 14.3312 6.3429 14.3312 6.54704C14.3457 6.89699 14.3312 7.24694 14.3312 7.62606C15.0261 7.62606 15.6775 7.62606 16.3434 7.62606C17.3277 7.62606 17.3712 7.6698 17.3712 8.64675C17.3712 9.14252 17.3712 9.63829 17.3712 10.1341C17.3712 10.6007 17.183 10.7756 16.7342 10.7756C15.9525 10.7756 15.1708 10.7756 14.3746 10.7756C14.3746 15.2667 14.3746 19.7286 14.3746 24.278C14.8813 24.0738 15.359 23.9135 15.8078 23.6947C17.7331 22.7469 19.0504 21.2742 19.4991 19.1308C19.6294 18.4746 19.6294 17.7893 19.6439 17.1185C19.6728 16.3895 19.6584 15.6604 19.6728 14.9459C19.6728 14.3918 20.0492 14.1877 20.5125 14.4793C21.9021 15.3396 23.2918 16.1999 24.6815 17.0748C25.1448 17.3664 25.1158 17.7893 24.6381 18.0372C24.117 18.2996 23.6103 18.5767 23.0747 18.8246C22.8865 18.912 22.8141 19.0287 22.8141 19.2328C22.8431 20.3993 22.7418 21.5513 22.3654 22.6595C21.7863 24.3509 20.7151 25.6632 19.2675 26.6693C18.0226 27.5442 16.6474 28.0837 15.1853 28.4628C15.0405 28.5066 14.8958 28.5941 14.7944 28.6961C14.2009 29.3377 13.6219 29.9939 13.0429 30.65C12.927 30.7813 12.7678 30.8833 12.6375 31C12.5507 31 12.4783 31 12.3914 31C12.2611 30.8833 12.1019 30.7813 11.9861 30.65C11.3926 30.0085 10.828 29.3377 10.2345 28.6961C10.1332 28.5795 9.95947 28.492 9.81471 28.4483C8.36711 28.0546 6.97742 27.5151 5.74696 26.6402C4.28489 25.6049 3.22814 24.278 2.6491 22.5574C2.2872 21.4784 2.20035 20.3702 2.21482 19.2474C2.21482 18.9995 2.15692 18.8683 1.9253 18.7662C1.43312 18.5475 0.955414 18.2996 0.477707 18.0372C0.303995 17.9351 0.159236 17.7455 0 17.5997C0 17.556 0 17.4976 0 17.4393ZM11.6532 10.7756C11.6532 10.9506 11.6532 11.0818 11.6532 11.2131C11.6532 15.4563 11.6532 19.714 11.6532 23.9572C11.6532 24.2488 11.6242 24.4967 12.044 24.5259C12.3191 24.5405 12.4493 24.8029 12.3914 25.0654C12.3335 25.3278 12.1598 25.4591 11.8992 25.4445C11.7255 25.4299 11.5373 25.4008 11.3636 25.3716C9.43833 25.0071 7.7736 24.1468 6.47076 22.6449C5.28373 21.2742 4.73364 19.6557 4.64679 17.8622C4.60336 17.1477 4.53098 16.4186 4.4586 15.6604C3.45976 16.2874 2.50434 16.8706 1.51998 17.4976C1.91083 17.7018 2.24378 17.8913 2.60567 18.0372C3.05443 18.2121 3.24262 18.5038 3.19919 18.9849C3.17024 19.437 3.18471 19.889 3.21367 20.341C3.34395 22.2512 4.06775 23.8843 5.50087 25.182C6.6879 26.2611 8.07759 26.961 9.61205 27.3547C10.3069 27.5296 10.857 27.8213 11.2913 28.3899C11.6532 28.8711 12.1019 29.3086 12.5217 29.7752C13.1008 29.1336 13.6364 28.5066 14.2009 27.9087C14.3602 27.7484 14.5773 27.6025 14.7944 27.5442C16.1118 27.1943 17.3712 26.7277 18.5148 25.9694C20.0058 24.9779 21.0625 23.6656 21.5692 21.9158C21.8008 21.1138 21.8587 20.2973 21.8587 19.4661C21.8587 18.1246 21.7284 18.4017 22.8865 17.8039C23.0892 17.7018 23.2918 17.5997 23.5235 17.4685C22.5536 16.8706 21.6271 16.2874 20.6572 15.6896C20.6572 15.8208 20.6427 15.9083 20.6427 15.9958C20.6283 16.754 20.6138 17.5122 20.5993 18.2705C20.5704 19.539 20.165 20.691 19.4847 21.7408C18.1818 23.7531 16.2565 24.8175 13.9983 25.357C13.6943 25.4299 13.4337 25.2404 13.3903 24.9341C13.3758 24.8612 13.3903 24.7738 13.3903 24.6863C13.3903 19.9619 13.3903 15.2375 13.3903 10.5132C13.3903 10.4257 13.3903 10.3528 13.4047 10.2653C13.4482 9.95908 13.6074 9.79868 13.9259 9.7841C14.143 9.76952 14.3457 9.7841 14.5628 9.7841C15.1708 9.7841 15.7788 9.7841 16.4158 9.7841C16.4158 9.37582 16.4158 8.99671 16.4158 8.60301C15.6196 8.60301 14.8379 8.60301 14.0562 8.60301C13.5785 8.60301 13.4192 8.42803 13.4047 7.94685C13.4047 7.40734 13.4192 6.85325 13.3903 6.31374C13.3613 5.89088 13.5206 5.62841 13.8825 5.39511C14.7944 4.82644 15.1563 3.70367 14.8234 2.63923C14.5194 1.66228 13.5206 0.94779 12.5217 0.976952C11.3636 1.00612 10.3503 1.89558 10.2056 2.9746C10.0463 4.25776 10.7267 5.3222 11.8992 5.68674C12.348 5.81797 12.5217 6.00753 12.4638 6.29915C12.4059 6.60536 12.1888 6.72201 11.74 6.67827C11.7255 6.67827 11.7255 6.67827 11.6821 6.69285C11.6821 7.05739 11.6821 7.45108 11.6821 7.8302C11.6821 8.48636 11.5663 8.61759 10.9149 8.61759C10.1766 8.61759 9.43833 8.61759 8.68558 8.61759C8.68558 9.02587 8.68558 9.40499 8.68558 9.79868C8.80139 9.79868 8.90272 9.79868 9.00405 9.79868C10.0608 9.79868 11.1031 9.79868 12.1598 9.79868C12.4783 9.79868 12.6665 9.98824 12.681 10.2653C12.681 10.5423 12.4928 10.7465 12.1888 10.7611C11.9861 10.7756 11.8413 10.7756 11.6532 10.7756Z" fill="#578672"/>
<path d="M12.5071 4.37442C11.9571 4.37442 11.5083 3.93698 11.5083 3.38288C11.5083 2.84337 11.9571 2.37677 12.4927 2.37677C13.0283 2.37677 13.4915 2.82879 13.4915 3.3683C13.506 3.9224 13.0572 4.37442 12.5071 4.37442Z" fill="#578672"/>
</g>
<defs>
<clipPath id="clip0_28_51">
<rect width="25" height="31" fill="white"/>
</clipPath>
</defs>
</svg>
