<svg width="27" height="28" viewBox="0 0 27 28" fill="none" xmlns="http://www.w3.org/2000/svg">
<path d="M22.7148 20.4864C23.0874 20.4864 23.3898 20.1728 23.3898 19.7864V13.6824C23.3889 12.9358 22.8048 12.33 22.0848 12.3291H20.5647V7.55976C20.5611 3.51469 17.4003 0.236827 13.4997 0.233093C9.59912 0.236827 6.43832 3.51469 6.43472 7.55976V12.3244H4.91462C4.19462 12.3254 3.61052 12.9311 3.60962 13.6778V24.3542C3.61142 26.2376 5.08382 27.7646 6.90002 27.7664H20.0994C21.9156 27.7646 23.388 26.2376 23.3898 24.3542C23.3898 23.9678 23.0874 23.6542 22.7148 23.6542C22.3422 23.6542 22.0398 23.9678 22.0398 24.3542C22.038 25.4648 21.1704 26.3646 20.0994 26.3664H6.90002C5.82902 26.3646 4.96142 25.4648 4.95962 24.3542L4.91462 13.7244H7.10972C7.48232 13.7244 7.78472 13.4108 7.78472 13.0244V7.55976C8.04752 -0.281173 18.9519 -0.282107 19.2147 7.55976V12.3244H11.6997C11.3271 12.3244 11.0247 12.638 11.0247 13.0244C11.0247 13.4108 11.3271 13.7244 11.6997 13.7244C13.425 13.7151 20.4684 13.689 22.0398 13.6778V19.7864C22.0398 20.1728 22.3422 20.4864 22.7148 20.4864Z" fill="#D14A37"/>
<path d="M12.0115 20.0444C12.0448 22.0735 14.9554 22.0735 14.9887 20.0444C14.9554 18.0154 12.0448 18.0154 12.0115 20.0444Z" fill="#D14A37"/>
</svg>
